<mxfile host="app.diagrams.net" modified="2022-09-15T15:41:59.721Z" agent="5.0 (Macintosh; Intel Mac OS X 10_15_7) AppleWebKit/537.36 (KHTML, like Gecko) Chrome/105.0.0.0 Safari/537.36" etag="k56kXXeaKsRW-fxG_CDT" version="20.3.0" type="github">
  <diagram id="R3YKkus_8hv8yR3nshlP" name="Страница 1">
    <mxGraphModel dx="2102" dy="1238" grid="1" gridSize="10" guides="1" tooltips="1" connect="1" arrows="1" fold="1" page="1" pageScale="1" pageWidth="827" pageHeight="1169" math="0" shadow="0">
      <root>
        <mxCell id="0" />
        <mxCell id="1" parent="0" />
        <mxCell id="4njEkcWV6SPJyhwRv9go-1" value="" style="edgeStyle=none;rounded=0;jumpStyle=none;html=1;shadow=0;labelBackgroundColor=none;startArrow=none;startFill=0;endArrow=classic;endFill=1;jettySize=auto;orthogonalLoop=1;strokeColor=#2F5B7C;strokeWidth=3;fontFamily=Helvetica;fontSize=16;fontColor=#23445D;spacing=5;" parent="1" source="4njEkcWV6SPJyhwRv9go-4" target="4njEkcWV6SPJyhwRv9go-7" edge="1">
          <mxGeometry relative="1" as="geometry" />
        </mxCell>
        <mxCell id="4njEkcWV6SPJyhwRv9go-2" value="" style="edgeStyle=none;rounded=0;jumpStyle=none;html=1;shadow=0;labelBackgroundColor=none;startArrow=none;startFill=0;endArrow=classic;endFill=1;jettySize=auto;orthogonalLoop=1;strokeColor=#2F5B7C;strokeWidth=3;fontFamily=Helvetica;fontSize=16;fontColor=#23445D;spacing=5;" parent="1" source="4njEkcWV6SPJyhwRv9go-4" target="4njEkcWV6SPJyhwRv9go-6" edge="1">
          <mxGeometry relative="1" as="geometry" />
        </mxCell>
        <mxCell id="4njEkcWV6SPJyhwRv9go-3" value="" style="edgeStyle=none;rounded=0;jumpStyle=none;html=1;shadow=0;labelBackgroundColor=none;startArrow=none;startFill=0;endArrow=classic;endFill=1;jettySize=auto;orthogonalLoop=1;strokeColor=#2F5B7C;strokeWidth=3;fontFamily=Helvetica;fontSize=16;fontColor=#23445D;spacing=5;" parent="1" source="4njEkcWV6SPJyhwRv9go-4" target="4njEkcWV6SPJyhwRv9go-5" edge="1">
          <mxGeometry relative="1" as="geometry" />
        </mxCell>
        <mxCell id="4njEkcWV6SPJyhwRv9go-4" value="&lt;div&gt;Потреба у поживній суміші&lt;/div&gt;&lt;div&gt;під час проживання у печері&amp;nbsp;&lt;/div&gt;&lt;div&gt;та професійного спілкування&lt;/div&gt;&lt;div&gt;для створення поетичних творів&lt;/div&gt;" style="rounded=1;whiteSpace=wrap;html=1;shadow=0;labelBackgroundColor=none;strokeColor=none;strokeWidth=3;fillColor=#2F5B7C;fontFamily=Helvetica;fontSize=16;fontColor=#FFFFFF;align=center;fontStyle=1;spacing=5;arcSize=7;perimeterSpacing=2;" parent="1" vertex="1">
          <mxGeometry x="660" y="480" width="380" height="160" as="geometry" />
        </mxCell>
        <mxCell id="4njEkcWV6SPJyhwRv9go-5" value="безпека праці" style="rounded=1;whiteSpace=wrap;html=1;shadow=0;labelBackgroundColor=none;strokeColor=none;strokeWidth=3;fillColor=#e85642;fontFamily=Helvetica;fontSize=14;fontColor=#FFFFFF;align=center;spacing=5;fontStyle=1;arcSize=7;perimeterSpacing=2;" parent="1" vertex="1">
          <mxGeometry x="432" y="520" width="148" height="79" as="geometry" />
        </mxCell>
        <mxCell id="4njEkcWV6SPJyhwRv9go-6" value="освітленість навколишнього середовища" style="rounded=1;whiteSpace=wrap;html=1;shadow=0;labelBackgroundColor=none;strokeColor=none;strokeWidth=3;fillColor=#1699d3;fontFamily=Helvetica;fontSize=14;fontColor=#FFFFFF;align=center;spacing=5;fontStyle=1;arcSize=7;perimeterSpacing=2;" parent="1" vertex="1">
          <mxGeometry x="770" y="676" width="160" height="74" as="geometry" />
        </mxCell>
        <mxCell id="4njEkcWV6SPJyhwRv9go-7" value="дружба" style="rounded=1;whiteSpace=wrap;html=1;shadow=0;labelBackgroundColor=none;strokeColor=none;strokeWidth=3;fillColor=#12aab5;fontFamily=Helvetica;fontSize=14;fontColor=#FFFFFF;align=center;spacing=5;fontStyle=1;arcSize=7;perimeterSpacing=2;" parent="1" vertex="1">
          <mxGeometry x="1140" y="520" width="147" height="80" as="geometry" />
        </mxCell>
        <mxCell id="4njEkcWV6SPJyhwRv9go-8" value="Як?" style="rounded=1;whiteSpace=wrap;html=1;shadow=0;labelBackgroundColor=none;strokeColor=none;strokeWidth=3;fillColor=#61c6ce;fontFamily=Helvetica;fontSize=14;fontColor=#FFFFFF;align=center;spacing=5;fontStyle=0;arcSize=7;perimeterSpacing=2;" parent="1" vertex="1">
          <mxGeometry x="1317" y="791" width="69" height="60" as="geometry" />
        </mxCell>
        <mxCell id="4njEkcWV6SPJyhwRv9go-9" value="" style="edgeStyle=none;rounded=1;jumpStyle=none;html=1;shadow=0;labelBackgroundColor=none;startArrow=none;startFill=0;jettySize=auto;orthogonalLoop=1;strokeColor=#12AAB5;strokeWidth=3;fontFamily=Helvetica;fontSize=14;fontColor=#FFFFFF;spacing=5;fontStyle=1;fillColor=#b0e3e6;exitX=0.5;exitY=1;exitDx=0;exitDy=0;" parent="1" source="4njEkcWV6SPJyhwRv9go-7" target="4njEkcWV6SPJyhwRv9go-8" edge="1">
          <mxGeometry relative="1" as="geometry">
            <mxPoint x="1289" y="635" as="targetPoint" />
          </mxGeometry>
        </mxCell>
        <mxCell id="4njEkcWV6SPJyhwRv9go-10" value="Коли?" style="rounded=1;whiteSpace=wrap;html=1;shadow=0;labelBackgroundColor=none;strokeColor=none;strokeWidth=3;fillColor=#61c6ce;fontFamily=Helvetica;fontSize=14;fontColor=#FFFFFF;align=center;spacing=5;fontStyle=0;arcSize=7;perimeterSpacing=2;direction=south;" parent="1" vertex="1">
          <mxGeometry x="1327.75" y="620.75" width="65.5" height="60.25" as="geometry" />
        </mxCell>
        <mxCell id="4njEkcWV6SPJyhwRv9go-11" value="" style="edgeStyle=none;rounded=1;jumpStyle=none;html=1;shadow=0;labelBackgroundColor=none;startArrow=none;startFill=0;jettySize=auto;orthogonalLoop=1;strokeColor=#12AAB5;strokeWidth=3;fontFamily=Helvetica;fontSize=14;fontColor=#FFFFFF;spacing=5;fontStyle=1;fillColor=#b0e3e6;exitX=1;exitY=1;exitDx=0;exitDy=0;" parent="1" source="4njEkcWV6SPJyhwRv9go-7" target="4njEkcWV6SPJyhwRv9go-10" edge="1">
          <mxGeometry relative="1" as="geometry" />
        </mxCell>
        <mxCell id="4njEkcWV6SPJyhwRv9go-12" value="Де?" style="rounded=1;whiteSpace=wrap;html=1;shadow=0;labelBackgroundColor=none;strokeColor=none;strokeWidth=3;fillColor=#61c6ce;fontFamily=Helvetica;fontSize=14;fontColor=#FFFFFF;align=center;spacing=5;fontStyle=0;arcSize=7;perimeterSpacing=2;" parent="1" vertex="1">
          <mxGeometry x="1326" y="411" width="69" height="52" as="geometry" />
        </mxCell>
        <mxCell id="4njEkcWV6SPJyhwRv9go-13" value="" style="edgeStyle=none;rounded=1;jumpStyle=none;html=1;shadow=0;labelBackgroundColor=none;startArrow=none;startFill=0;jettySize=auto;orthogonalLoop=1;strokeColor=#12AAB5;strokeWidth=3;fontFamily=Helvetica;fontSize=14;fontColor=#FFFFFF;spacing=5;fontStyle=1;fillColor=#b0e3e6;" parent="1" target="4njEkcWV6SPJyhwRv9go-12" edge="1">
          <mxGeometry relative="1" as="geometry">
            <mxPoint x="1280" y="529.9999999999998" as="sourcePoint" />
          </mxGeometry>
        </mxCell>
        <mxCell id="4njEkcWV6SPJyhwRv9go-14" value="Що?" style="rounded=1;whiteSpace=wrap;html=1;shadow=0;labelBackgroundColor=none;strokeColor=none;strokeWidth=3;fillColor=#61c6ce;fontFamily=Helvetica;fontSize=14;fontColor=#FFFFFF;align=center;spacing=5;fontStyle=0;arcSize=7;perimeterSpacing=2;" parent="1" vertex="1">
          <mxGeometry x="1313" y="280" width="73" height="60" as="geometry" />
        </mxCell>
        <mxCell id="4njEkcWV6SPJyhwRv9go-15" value="" style="edgeStyle=none;rounded=1;jumpStyle=none;html=1;shadow=0;labelBackgroundColor=none;startArrow=none;startFill=0;jettySize=auto;orthogonalLoop=1;strokeColor=#12AAB5;strokeWidth=3;fontFamily=Helvetica;fontSize=14;fontColor=#FFFFFF;spacing=5;fontStyle=1;fillColor=#b0e3e6;exitX=0.5;exitY=0;exitDx=0;exitDy=0;" parent="1" source="4njEkcWV6SPJyhwRv9go-7" target="4njEkcWV6SPJyhwRv9go-14" edge="1">
          <mxGeometry relative="1" as="geometry">
            <mxPoint x="1223" y="507" as="sourcePoint" />
          </mxGeometry>
        </mxCell>
        <mxCell id="4njEkcWV6SPJyhwRv9go-16" value="Приходить" style="rounded=1;whiteSpace=wrap;html=1;shadow=0;fillColor=#DEF5EB;fontFamily=Helvetica;fontSize=14;fontColor=#000000;align=center;spacing=5;fontStyle=0;arcSize=7;perimeterSpacing=2;" parent="1" vertex="1">
          <mxGeometry x="1429" y="158.5" width="82" height="60" as="geometry" />
        </mxCell>
        <mxCell id="4njEkcWV6SPJyhwRv9go-17" value="Обробляється" style="rounded=1;whiteSpace=wrap;html=1;shadow=0;fillColor=#DEF5EB;fontFamily=Helvetica;fontSize=14;fontColor=#000000;align=center;spacing=5;fontStyle=0;arcSize=7;perimeterSpacing=2;" parent="1" vertex="1">
          <mxGeometry x="1525" y="160.5" width="106" height="60" as="geometry" />
        </mxCell>
        <mxCell id="4njEkcWV6SPJyhwRv9go-18" value="Виходить" style="rounded=1;whiteSpace=wrap;html=1;shadow=0;fillColor=#DEF5EB;fontFamily=Helvetica;fontSize=14;fontColor=#000000;align=center;spacing=5;fontStyle=0;arcSize=7;perimeterSpacing=2;" parent="1" vertex="1">
          <mxGeometry x="1453" y="279" width="84" height="60" as="geometry" />
        </mxCell>
        <mxCell id="4njEkcWV6SPJyhwRv9go-19" value="" style="edgeStyle=none;rounded=1;jumpStyle=none;html=1;shadow=0;labelBackgroundColor=none;startArrow=none;startFill=0;jettySize=auto;orthogonalLoop=1;strokeColor=#12AAB5;strokeWidth=3;fontFamily=Helvetica;fontSize=14;fontColor=#FFFFFF;spacing=5;fontStyle=1;fillColor=#b0e3e6;" parent="1" source="4njEkcWV6SPJyhwRv9go-14" target="4njEkcWV6SPJyhwRv9go-16" edge="1">
          <mxGeometry relative="1" as="geometry">
            <mxPoint x="1475" y="310" as="sourcePoint" />
            <mxPoint x="1523" y="239.9999999999999" as="targetPoint" />
          </mxGeometry>
        </mxCell>
        <mxCell id="4njEkcWV6SPJyhwRv9go-20" value="" style="edgeStyle=none;rounded=1;jumpStyle=none;html=1;shadow=0;labelBackgroundColor=none;startArrow=none;startFill=0;jettySize=auto;orthogonalLoop=1;strokeColor=#12AAB5;strokeWidth=3;fontFamily=Helvetica;fontSize=14;fontColor=#FFFFFF;spacing=5;fontStyle=1;fillColor=#b0e3e6;entryX=0.367;entryY=0.976;entryDx=0;entryDy=0;entryPerimeter=0;exitX=1;exitY=0.25;exitDx=0;exitDy=0;" parent="1" source="4njEkcWV6SPJyhwRv9go-14" target="4njEkcWV6SPJyhwRv9go-17" edge="1">
          <mxGeometry relative="1" as="geometry">
            <mxPoint x="1536" y="313" as="sourcePoint" />
            <mxPoint x="1604.6925086139822" y="250.9999999999999" as="targetPoint" />
          </mxGeometry>
        </mxCell>
        <mxCell id="4njEkcWV6SPJyhwRv9go-21" value="" style="edgeStyle=none;rounded=1;jumpStyle=none;html=1;shadow=0;labelBackgroundColor=none;startArrow=none;startFill=0;jettySize=auto;orthogonalLoop=1;strokeColor=#12AAB5;strokeWidth=3;fontFamily=Helvetica;fontSize=14;fontColor=#FFFFFF;spacing=5;fontStyle=1;fillColor=#b0e3e6;exitX=1;exitY=0.5;exitDx=0;exitDy=0;entryX=0;entryY=0.5;entryDx=0;entryDy=0;" parent="1" source="4njEkcWV6SPJyhwRv9go-14" target="4njEkcWV6SPJyhwRv9go-18" edge="1">
          <mxGeometry relative="1" as="geometry">
            <mxPoint x="1159" y="386" as="sourcePoint" />
            <mxPoint x="1262" y="400.12345679012344" as="targetPoint" />
          </mxGeometry>
        </mxCell>
        <mxCell id="4njEkcWV6SPJyhwRv9go-22" value="" style="edgeStyle=none;rounded=0;jumpStyle=none;html=1;shadow=0;labelBackgroundColor=none;startArrow=none;startFill=0;endArrow=classic;endFill=1;jettySize=auto;orthogonalLoop=1;strokeColor=#1699D3;strokeWidth=3;fontFamily=Helvetica;fontSize=14;fontColor=#FFFFFF;spacing=5;exitX=0;exitY=0.5;exitDx=0;exitDy=0;" parent="1" source="4njEkcWV6SPJyhwRv9go-6" target="4njEkcWV6SPJyhwRv9go-23" edge="1">
          <mxGeometry relative="1" as="geometry">
            <mxPoint x="812.5" y="668" as="sourcePoint" />
          </mxGeometry>
        </mxCell>
        <mxCell id="4njEkcWV6SPJyhwRv9go-23" value="Що?" style="rounded=1;whiteSpace=wrap;html=1;shadow=0;labelBackgroundColor=none;strokeColor=none;strokeWidth=3;fillColor=#64bbe2;fontFamily=Helvetica;fontSize=14;fontColor=#FFFFFF;align=center;spacing=5;arcSize=7;perimeterSpacing=2;" parent="1" vertex="1">
          <mxGeometry x="494" y="685" width="75" height="60" as="geometry" />
        </mxCell>
        <mxCell id="4njEkcWV6SPJyhwRv9go-24" value="" style="edgeStyle=none;rounded=0;jumpStyle=none;html=1;shadow=0;labelBackgroundColor=none;startArrow=none;startFill=0;endArrow=classic;endFill=1;jettySize=auto;orthogonalLoop=1;strokeColor=#1699D3;strokeWidth=3;fontFamily=Helvetica;fontSize=14;fontColor=#FFFFFF;spacing=5;exitX=0.25;exitY=1;exitDx=0;exitDy=0;" parent="1" source="4njEkcWV6SPJyhwRv9go-6" target="4njEkcWV6SPJyhwRv9go-25" edge="1">
          <mxGeometry relative="1" as="geometry">
            <mxPoint x="837.4994999999999" y="742.0160000000001" as="sourcePoint" />
          </mxGeometry>
        </mxCell>
        <mxCell id="4njEkcWV6SPJyhwRv9go-25" value="Де?" style="rounded=1;whiteSpace=wrap;html=1;shadow=0;labelBackgroundColor=none;strokeColor=none;strokeWidth=3;fillColor=#64bbe2;fontFamily=Helvetica;fontSize=14;fontColor=#FFFFFF;align=center;spacing=5;arcSize=7;perimeterSpacing=2;" parent="1" vertex="1">
          <mxGeometry x="749.5" y="791" width="75" height="60" as="geometry" />
        </mxCell>
        <mxCell id="4njEkcWV6SPJyhwRv9go-26" value="" style="edgeStyle=none;rounded=0;jumpStyle=none;html=1;shadow=0;labelBackgroundColor=none;startArrow=none;startFill=0;endArrow=classic;endFill=1;jettySize=auto;orthogonalLoop=1;strokeColor=#1699D3;strokeWidth=3;fontFamily=Helvetica;fontSize=14;fontColor=#FFFFFF;spacing=5;" parent="1" source="4njEkcWV6SPJyhwRv9go-6" target="4njEkcWV6SPJyhwRv9go-27" edge="1">
          <mxGeometry relative="1" as="geometry">
            <mxPoint x="875.7608695652175" y="744" as="sourcePoint" />
          </mxGeometry>
        </mxCell>
        <mxCell id="4njEkcWV6SPJyhwRv9go-27" value="Коли?" style="rounded=1;whiteSpace=wrap;html=1;shadow=0;labelBackgroundColor=none;strokeColor=none;strokeWidth=3;fillColor=#64bbe2;fontFamily=Helvetica;fontSize=14;fontColor=#FFFFFF;align=center;spacing=5;arcSize=7;perimeterSpacing=2;" parent="1" vertex="1">
          <mxGeometry x="866.5" y="791" width="75" height="60" as="geometry" />
        </mxCell>
        <mxCell id="4njEkcWV6SPJyhwRv9go-28" value="" style="edgeStyle=none;rounded=0;jumpStyle=none;html=1;shadow=0;labelBackgroundColor=none;startArrow=none;startFill=0;endArrow=classic;endFill=1;jettySize=auto;orthogonalLoop=1;strokeColor=#1699D3;strokeWidth=3;fontFamily=Helvetica;fontSize=14;fontColor=#FFFFFF;spacing=5;exitX=1;exitY=0.5;exitDx=0;exitDy=0;" parent="1" source="4njEkcWV6SPJyhwRv9go-6" target="4njEkcWV6SPJyhwRv9go-29" edge="1">
          <mxGeometry relative="1" as="geometry">
            <mxPoint x="912.75" y="712" as="sourcePoint" />
          </mxGeometry>
        </mxCell>
        <mxCell id="4njEkcWV6SPJyhwRv9go-29" value="Як?" style="rounded=1;whiteSpace=wrap;html=1;shadow=0;labelBackgroundColor=none;strokeColor=none;strokeWidth=3;fillColor=#64bbe2;fontFamily=Helvetica;fontSize=14;fontColor=#FFFFFF;align=center;spacing=5;arcSize=7;perimeterSpacing=2;" parent="1" vertex="1">
          <mxGeometry x="1100.5" y="683" width="75" height="60" as="geometry" />
        </mxCell>
        <mxCell id="4njEkcWV6SPJyhwRv9go-30" value="" style="edgeStyle=none;rounded=1;jumpStyle=none;html=1;shadow=0;labelBackgroundColor=none;startArrow=none;startFill=0;jettySize=auto;orthogonalLoop=1;strokeColor=#E85642;strokeWidth=3;fontFamily=Helvetica;fontSize=14;fontColor=#FFFFFF;spacing=5;fontStyle=1;fillColor=#b0e3e6;exitX=0.382;exitY=0.011;exitDx=0;exitDy=0;exitPerimeter=0;" parent="1" source="4njEkcWV6SPJyhwRv9go-5" target="4njEkcWV6SPJyhwRv9go-31" edge="1">
          <mxGeometry relative="1" as="geometry">
            <mxPoint x="319.3587786259541" y="523.5" as="sourcePoint" />
          </mxGeometry>
        </mxCell>
        <mxCell id="4njEkcWV6SPJyhwRv9go-31" value="Що?" style="rounded=1;whiteSpace=wrap;html=1;shadow=0;labelBackgroundColor=none;strokeColor=none;strokeWidth=3;fillColor=#f08e81;fontFamily=Helvetica;fontSize=14;fontColor=#FFFFFF;align=center;spacing=5;fontStyle=0;arcSize=7;perimeterSpacing=2;" parent="1" vertex="1">
          <mxGeometry x="282" y="315" width="64" height="55" as="geometry" />
        </mxCell>
        <mxCell id="4njEkcWV6SPJyhwRv9go-32" value="" style="edgeStyle=none;rounded=1;jumpStyle=none;html=1;shadow=0;labelBackgroundColor=none;startArrow=none;startFill=0;jettySize=auto;orthogonalLoop=1;strokeColor=#E85642;strokeWidth=3;fontFamily=Helvetica;fontSize=14;fontColor=#FFFFFF;spacing=5;fontStyle=1;fillColor=#b0e3e6;exitX=0.03;exitY=0.125;exitDx=0;exitDy=0;exitPerimeter=0;" parent="1" source="4njEkcWV6SPJyhwRv9go-5" target="4njEkcWV6SPJyhwRv9go-33" edge="1">
          <mxGeometry relative="1" as="geometry">
            <mxPoint x="396.9580000000001" y="623.008" as="sourcePoint" />
          </mxGeometry>
        </mxCell>
        <mxCell id="4njEkcWV6SPJyhwRv9go-33" value="Де?" style="rounded=1;whiteSpace=wrap;html=1;shadow=0;labelBackgroundColor=none;strokeColor=none;strokeWidth=3;fillColor=#f08e81;fontFamily=Helvetica;fontSize=14;fontColor=#FFFFFF;align=center;spacing=5;fontStyle=0;arcSize=7;perimeterSpacing=2;" parent="1" vertex="1">
          <mxGeometry x="276" y="435" width="70" height="57" as="geometry" />
        </mxCell>
        <mxCell id="4njEkcWV6SPJyhwRv9go-34" value="" style="edgeStyle=none;rounded=1;jumpStyle=none;html=1;shadow=0;labelBackgroundColor=none;startArrow=none;startFill=0;jettySize=auto;orthogonalLoop=1;strokeColor=#E85642;strokeWidth=3;fontFamily=Helvetica;fontSize=14;fontColor=#FFFFFF;spacing=5;fontStyle=1;fillColor=#b0e3e6;entryX=1;entryY=0.5;entryDx=0;entryDy=0;exitX=0.04;exitY=0.906;exitDx=0;exitDy=0;exitPerimeter=0;" parent="1" source="4njEkcWV6SPJyhwRv9go-5" target="4njEkcWV6SPJyhwRv9go-35" edge="1">
          <mxGeometry relative="1" as="geometry">
            <mxPoint x="430.9580000000001" y="741.008" as="sourcePoint" />
          </mxGeometry>
        </mxCell>
        <mxCell id="4njEkcWV6SPJyhwRv9go-35" value="Коли?" style="rounded=1;whiteSpace=wrap;html=1;shadow=0;labelBackgroundColor=none;strokeColor=none;strokeWidth=3;fillColor=#f08e81;fontFamily=Helvetica;fontSize=14;fontColor=#FFFFFF;align=center;spacing=5;fontStyle=0;arcSize=7;perimeterSpacing=2;" parent="1" vertex="1">
          <mxGeometry x="276" y="633" width="63" height="57" as="geometry" />
        </mxCell>
        <mxCell id="4njEkcWV6SPJyhwRv9go-36" value="" style="edgeStyle=none;rounded=1;jumpStyle=none;html=1;shadow=0;labelBackgroundColor=none;startArrow=none;startFill=0;jettySize=auto;orthogonalLoop=1;strokeColor=#E85642;strokeWidth=3;fontFamily=Helvetica;fontSize=14;fontColor=#FFFFFF;spacing=5;fontStyle=1;fillColor=#b0e3e6;entryX=1;entryY=0;entryDx=0;entryDy=0;" parent="1" source="4njEkcWV6SPJyhwRv9go-5" target="4njEkcWV6SPJyhwRv9go-37" edge="1">
          <mxGeometry relative="1" as="geometry">
            <mxPoint x="472.9580000000001" y="757.008" as="sourcePoint" />
          </mxGeometry>
        </mxCell>
        <mxCell id="4njEkcWV6SPJyhwRv9go-37" value="Як?" style="rounded=1;whiteSpace=wrap;html=1;shadow=0;labelBackgroundColor=none;strokeColor=none;strokeWidth=3;fillColor=#f08e81;fontFamily=Helvetica;fontSize=14;fontColor=#FFFFFF;align=center;spacing=5;fontStyle=0;arcSize=7;perimeterSpacing=2;" parent="1" vertex="1">
          <mxGeometry x="273" y="819" width="69" height="57" as="geometry" />
        </mxCell>
        <mxCell id="4njEkcWV6SPJyhwRv9go-38" value="повага" style="fontFamily=Helvetica;fontSize=14;" parent="1" vertex="1">
          <mxGeometry x="1450" y="70" width="100" height="70" as="geometry" />
        </mxCell>
        <mxCell id="4njEkcWV6SPJyhwRv9go-39" value="" style="edgeStyle=none;rounded=1;jumpStyle=none;html=1;shadow=0;labelBackgroundColor=none;startArrow=none;startFill=0;jettySize=auto;orthogonalLoop=1;strokeColor=#12AAB5;strokeWidth=3;fontFamily=Helvetica;fontSize=14;fontColor=#FFFFFF;spacing=5;fontStyle=1;fillColor=#b0e3e6;entryX=0.5;entryY=1;entryDx=0;entryDy=0;" parent="1" source="4njEkcWV6SPJyhwRv9go-16" target="4njEkcWV6SPJyhwRv9go-38" edge="1">
          <mxGeometry relative="1" as="geometry">
            <mxPoint x="1680.5" y="289" as="sourcePoint" />
            <mxPoint x="1672" y="237" as="targetPoint" />
          </mxGeometry>
        </mxCell>
        <mxCell id="4njEkcWV6SPJyhwRv9go-40" value="відношення" style="fontFamily=Helvetica;fontSize=14;" parent="1" vertex="1">
          <mxGeometry x="1560" y="75.5" width="82" height="60" as="geometry" />
        </mxCell>
        <mxCell id="4njEkcWV6SPJyhwRv9go-41" value="взаємо-&#xa;відносини" style="fontFamily=Helvetica;fontSize=14;" parent="1" vertex="1">
          <mxGeometry x="1572" y="255" width="82" height="60" as="geometry" />
        </mxCell>
        <mxCell id="4njEkcWV6SPJyhwRv9go-42" value="" style="edgeStyle=none;rounded=1;jumpStyle=none;html=1;shadow=0;labelBackgroundColor=none;startArrow=none;startFill=0;jettySize=auto;orthogonalLoop=1;strokeColor=#12AAB5;strokeWidth=3;fontFamily=Helvetica;fontSize=14;fontColor=#FFFFFF;spacing=5;fontStyle=1;fillColor=#b0e3e6;entryX=0;entryY=0.5;entryDx=0;entryDy=0;exitX=1;exitY=0.25;exitDx=0;exitDy=0;" parent="1" source="4njEkcWV6SPJyhwRv9go-18" target="4njEkcWV6SPJyhwRv9go-41" edge="1">
          <mxGeometry relative="1" as="geometry">
            <mxPoint x="1201.25" y="405" as="sourcePoint" />
            <mxPoint x="1124.25" y="429.12345679012344" as="targetPoint" />
          </mxGeometry>
        </mxCell>
        <mxCell id="4njEkcWV6SPJyhwRv9go-43" value="" style="edgeStyle=none;rounded=1;jumpStyle=none;html=1;shadow=0;labelBackgroundColor=none;startArrow=none;startFill=0;jettySize=auto;orthogonalLoop=1;strokeColor=#12AAB5;strokeWidth=3;fontFamily=Helvetica;fontSize=14;fontColor=#FFFFFF;spacing=5;fontStyle=1;fillColor=#b0e3e6;" parent="1" source="4njEkcWV6SPJyhwRv9go-17" target="4njEkcWV6SPJyhwRv9go-40" edge="1">
          <mxGeometry relative="1" as="geometry">
            <mxPoint x="1852" y="270" as="sourcePoint" />
            <mxPoint x="1877" y="270" as="targetPoint" />
          </mxGeometry>
        </mxCell>
        <mxCell id="4njEkcWV6SPJyhwRv9go-44" value="Приходить" style="rounded=1;whiteSpace=wrap;html=1;shadow=0;fillColor=#DEF5EB;fontFamily=Helvetica;fontSize=14;fontColor=#000000;align=center;spacing=5;fontStyle=0;arcSize=7;perimeterSpacing=2;" parent="1" vertex="1">
          <mxGeometry x="1455" y="350" width="82" height="60" as="geometry" />
        </mxCell>
        <mxCell id="4njEkcWV6SPJyhwRv9go-45" value="Обробляється" style="rounded=1;whiteSpace=wrap;html=1;shadow=0;fillColor=#DEF5EB;fontFamily=Helvetica;fontSize=14;fontColor=#000000;align=center;spacing=5;fontStyle=0;arcSize=7;perimeterSpacing=2;" parent="1" vertex="1">
          <mxGeometry x="1441" y="435" width="106" height="60" as="geometry" />
        </mxCell>
        <mxCell id="4njEkcWV6SPJyhwRv9go-46" value="Виходить" style="rounded=1;whiteSpace=wrap;html=1;shadow=0;fillColor=#DEF5EB;fontFamily=Helvetica;fontSize=14;fontColor=#000000;align=center;spacing=5;fontStyle=0;arcSize=7;perimeterSpacing=2;" parent="1" vertex="1">
          <mxGeometry x="1430" y="509" width="84" height="60" as="geometry" />
        </mxCell>
        <mxCell id="4njEkcWV6SPJyhwRv9go-47" value="" style="edgeStyle=none;rounded=1;jumpStyle=none;html=1;shadow=0;labelBackgroundColor=none;startArrow=none;startFill=0;jettySize=auto;orthogonalLoop=1;strokeColor=#12AAB5;strokeWidth=3;fontFamily=Helvetica;fontSize=14;fontColor=#FFFFFF;spacing=5;fontStyle=1;fillColor=#b0e3e6;exitX=1;exitY=0;exitDx=0;exitDy=0;" parent="1" source="4njEkcWV6SPJyhwRv9go-12" target="4njEkcWV6SPJyhwRv9go-44" edge="1">
          <mxGeometry relative="1" as="geometry">
            <mxPoint x="1669.25" y="363.5" as="sourcePoint" />
            <mxPoint x="1660.75" y="311.4999999999999" as="targetPoint" />
          </mxGeometry>
        </mxCell>
        <mxCell id="4njEkcWV6SPJyhwRv9go-48" value="" style="edgeStyle=none;rounded=1;jumpStyle=none;html=1;shadow=0;labelBackgroundColor=none;startArrow=none;startFill=0;jettySize=auto;orthogonalLoop=1;strokeColor=#12AAB5;strokeWidth=3;fontFamily=Helvetica;fontSize=14;fontColor=#FFFFFF;spacing=5;fontStyle=1;fillColor=#b0e3e6;" parent="1" source="4njEkcWV6SPJyhwRv9go-12" target="4njEkcWV6SPJyhwRv9go-45" edge="1">
          <mxGeometry relative="1" as="geometry">
            <mxPoint x="1538.7040000000002" y="620.476" as="sourcePoint" />
            <mxPoint x="1573.4425086139822" y="580.4999999999999" as="targetPoint" />
          </mxGeometry>
        </mxCell>
        <mxCell id="4njEkcWV6SPJyhwRv9go-49" value="" style="edgeStyle=none;rounded=1;jumpStyle=none;html=1;shadow=0;labelBackgroundColor=none;startArrow=none;startFill=0;jettySize=auto;orthogonalLoop=1;strokeColor=#12AAB5;strokeWidth=3;fontFamily=Helvetica;fontSize=14;fontColor=#FFFFFF;spacing=5;fontStyle=1;fillColor=#b0e3e6;exitX=1;exitY=1;exitDx=0;exitDy=0;entryX=0;entryY=0.5;entryDx=0;entryDy=0;" parent="1" source="4njEkcWV6SPJyhwRv9go-12" target="4njEkcWV6SPJyhwRv9go-46" edge="1">
          <mxGeometry relative="1" as="geometry">
            <mxPoint x="1543.75" y="653.5" as="sourcePoint" />
            <mxPoint x="1580.75" y="641.6234567901234" as="targetPoint" />
          </mxGeometry>
        </mxCell>
        <mxCell id="4njEkcWV6SPJyhwRv9go-50" value="в суспільстві" style="fontFamily=Helvetica;fontSize=14;" parent="1" vertex="1">
          <mxGeometry x="1560" y="373.5" width="94" height="60" as="geometry" />
        </mxCell>
        <mxCell id="4njEkcWV6SPJyhwRv9go-51" value="" style="edgeStyle=none;rounded=1;jumpStyle=none;html=1;shadow=0;labelBackgroundColor=none;startArrow=none;startFill=0;jettySize=auto;orthogonalLoop=1;strokeColor=#12AAB5;strokeWidth=3;fontFamily=Helvetica;fontSize=14;fontColor=#FFFFFF;spacing=5;fontStyle=1;fillColor=#b0e3e6;entryX=0;entryY=0.5;entryDx=0;entryDy=0;" parent="1" source="4njEkcWV6SPJyhwRv9go-44" target="4njEkcWV6SPJyhwRv9go-50" edge="1">
          <mxGeometry relative="1" as="geometry">
            <mxPoint x="1674.5" y="422.5" as="sourcePoint" />
            <mxPoint x="1666" y="370.5" as="targetPoint" />
          </mxGeometry>
        </mxCell>
        <mxCell id="4njEkcWV6SPJyhwRv9go-52" value="людиною" style="fontFamily=Helvetica;fontSize=14;" parent="1" vertex="1">
          <mxGeometry x="1572" y="443" width="82" height="60" as="geometry" />
        </mxCell>
        <mxCell id="4njEkcWV6SPJyhwRv9go-53" value="в колективі" style="fontFamily=Helvetica;fontSize=14;" parent="1" vertex="1">
          <mxGeometry x="1550" y="515" width="104" height="60" as="geometry" />
        </mxCell>
        <mxCell id="4njEkcWV6SPJyhwRv9go-54" value="" style="edgeStyle=none;rounded=1;jumpStyle=none;html=1;shadow=0;labelBackgroundColor=none;startArrow=none;startFill=0;jettySize=auto;orthogonalLoop=1;strokeColor=#12AAB5;strokeWidth=3;fontFamily=Helvetica;fontSize=14;fontColor=#FFFFFF;spacing=5;fontStyle=1;fillColor=#b0e3e6;entryX=0;entryY=0.5;entryDx=0;entryDy=0;" parent="1" source="4njEkcWV6SPJyhwRv9go-46" target="4njEkcWV6SPJyhwRv9go-53" edge="1">
          <mxGeometry relative="1" as="geometry">
            <mxPoint x="1667" y="651.5" as="sourcePoint" />
            <mxPoint x="1590" y="675.6234567901234" as="targetPoint" />
          </mxGeometry>
        </mxCell>
        <mxCell id="4njEkcWV6SPJyhwRv9go-55" value="" style="edgeStyle=none;rounded=1;jumpStyle=none;html=1;shadow=0;labelBackgroundColor=none;startArrow=none;startFill=0;jettySize=auto;orthogonalLoop=1;strokeColor=#12AAB5;strokeWidth=3;fontFamily=Helvetica;fontSize=14;fontColor=#FFFFFF;spacing=5;fontStyle=1;fillColor=#b0e3e6;" parent="1" source="4njEkcWV6SPJyhwRv9go-45" target="4njEkcWV6SPJyhwRv9go-52" edge="1">
          <mxGeometry relative="1" as="geometry">
            <mxPoint x="1677" y="661.5" as="sourcePoint" />
            <mxPoint x="1702" y="661.5" as="targetPoint" />
          </mxGeometry>
        </mxCell>
        <mxCell id="4njEkcWV6SPJyhwRv9go-56" value="Приходить" style="rounded=1;whiteSpace=wrap;html=1;shadow=0;fillColor=#DEF5EB;fontFamily=Helvetica;fontSize=14;fontColor=#000000;align=center;spacing=5;fontStyle=0;arcSize=7;perimeterSpacing=2;" parent="1" vertex="1">
          <mxGeometry x="1456" y="590" width="82" height="58.5" as="geometry" />
        </mxCell>
        <mxCell id="4njEkcWV6SPJyhwRv9go-57" value="Обробляється" style="rounded=1;whiteSpace=wrap;html=1;shadow=0;fillColor=#DEF5EB;fontFamily=Helvetica;fontSize=14;fontColor=#000000;align=center;spacing=5;fontStyle=0;arcSize=7;perimeterSpacing=2;" parent="1" vertex="1">
          <mxGeometry x="1430" y="662" width="106" height="60" as="geometry" />
        </mxCell>
        <mxCell id="4njEkcWV6SPJyhwRv9go-58" value="Виходить" style="rounded=1;whiteSpace=wrap;html=1;shadow=0;fillColor=#DEF5EB;fontFamily=Helvetica;fontSize=14;fontColor=#000000;align=center;spacing=5;fontStyle=0;arcSize=7;perimeterSpacing=2;" parent="1" vertex="1">
          <mxGeometry x="1442" y="745" width="84" height="60" as="geometry" />
        </mxCell>
        <mxCell id="4njEkcWV6SPJyhwRv9go-59" value="" style="edgeStyle=none;rounded=1;jumpStyle=none;html=1;shadow=0;labelBackgroundColor=none;startArrow=none;startFill=0;jettySize=auto;orthogonalLoop=1;strokeColor=#12AAB5;strokeWidth=3;fontFamily=Helvetica;fontSize=14;fontColor=#FFFFFF;spacing=5;fontStyle=1;fillColor=#b0e3e6;exitX=0;exitY=0;exitDx=0;exitDy=0;" parent="1" source="4njEkcWV6SPJyhwRv9go-10" target="4njEkcWV6SPJyhwRv9go-56" edge="1">
          <mxGeometry relative="1" as="geometry">
            <mxPoint x="1402.75" y="648" as="sourcePoint" />
            <mxPoint x="1667.75" y="547.4999999999999" as="targetPoint" />
          </mxGeometry>
        </mxCell>
        <mxCell id="4njEkcWV6SPJyhwRv9go-60" value="" style="edgeStyle=none;rounded=1;jumpStyle=none;html=1;shadow=0;labelBackgroundColor=none;startArrow=none;startFill=0;jettySize=auto;orthogonalLoop=1;strokeColor=#12AAB5;strokeWidth=3;fontFamily=Helvetica;fontSize=14;fontColor=#FFFFFF;spacing=5;fontStyle=1;fillColor=#b0e3e6;" parent="1" source="4njEkcWV6SPJyhwRv9go-10" target="4njEkcWV6SPJyhwRv9go-57" edge="1">
          <mxGeometry relative="1" as="geometry">
            <mxPoint x="1418.75" y="689.5148936170212" as="sourcePoint" />
            <mxPoint x="1580.4425086139822" y="816.5" as="targetPoint" />
          </mxGeometry>
        </mxCell>
        <mxCell id="4njEkcWV6SPJyhwRv9go-61" value="" style="edgeStyle=none;rounded=1;jumpStyle=none;html=1;shadow=0;labelBackgroundColor=none;startArrow=none;startFill=0;jettySize=auto;orthogonalLoop=1;strokeColor=#12AAB5;strokeWidth=3;fontFamily=Helvetica;fontSize=14;fontColor=#FFFFFF;spacing=5;fontStyle=1;fillColor=#b0e3e6;entryX=0;entryY=0.5;entryDx=0;entryDy=0;" parent="1" source="4njEkcWV6SPJyhwRv9go-10" target="4njEkcWV6SPJyhwRv9go-58" edge="1">
          <mxGeometry relative="1" as="geometry">
            <mxPoint x="1418.75" y="724" as="sourcePoint" />
            <mxPoint x="1587.75" y="877.6234567901233" as="targetPoint" />
          </mxGeometry>
        </mxCell>
        <mxCell id="4njEkcWV6SPJyhwRv9go-62" value="при&#xa;взаємодії" style="fontFamily=Helvetica;fontSize=14;" parent="1" vertex="1">
          <mxGeometry x="1572" y="589" width="82" height="60" as="geometry" />
        </mxCell>
        <mxCell id="4njEkcWV6SPJyhwRv9go-63" value="" style="edgeStyle=none;rounded=1;jumpStyle=none;html=1;shadow=0;labelBackgroundColor=none;startArrow=none;startFill=0;jettySize=auto;orthogonalLoop=1;strokeColor=#12AAB5;strokeWidth=3;fontFamily=Helvetica;fontSize=14;fontColor=#FFFFFF;spacing=5;fontStyle=1;fillColor=#b0e3e6;entryX=0;entryY=0.5;entryDx=0;entryDy=0;" parent="1" source="4njEkcWV6SPJyhwRv9go-56" target="4njEkcWV6SPJyhwRv9go-62" edge="1">
          <mxGeometry relative="1" as="geometry">
            <mxPoint x="1681.5" y="658.5" as="sourcePoint" />
            <mxPoint x="1673" y="606.5" as="targetPoint" />
          </mxGeometry>
        </mxCell>
        <mxCell id="4njEkcWV6SPJyhwRv9go-64" value="при&#xa;взаємодії" style="fontFamily=Helvetica;fontSize=14;" parent="1" vertex="1">
          <mxGeometry x="1560" y="662" width="94" height="60" as="geometry" />
        </mxCell>
        <mxCell id="4njEkcWV6SPJyhwRv9go-65" value="при&#xa;взаємодії" style="fontFamily=Helvetica;fontSize=14;" parent="1" vertex="1">
          <mxGeometry x="1560" y="736" width="94" height="60" as="geometry" />
        </mxCell>
        <mxCell id="4njEkcWV6SPJyhwRv9go-66" value="" style="edgeStyle=none;rounded=1;jumpStyle=none;html=1;shadow=0;labelBackgroundColor=none;startArrow=none;startFill=0;jettySize=auto;orthogonalLoop=1;strokeColor=#12AAB5;strokeWidth=3;fontFamily=Helvetica;fontSize=14;fontColor=#FFFFFF;spacing=5;fontStyle=1;fillColor=#b0e3e6;entryX=0;entryY=0.5;entryDx=0;entryDy=0;" parent="1" source="4njEkcWV6SPJyhwRv9go-58" target="4njEkcWV6SPJyhwRv9go-65" edge="1">
          <mxGeometry relative="1" as="geometry">
            <mxPoint x="1674" y="887.5" as="sourcePoint" />
            <mxPoint x="1597" y="911.6234567901233" as="targetPoint" />
          </mxGeometry>
        </mxCell>
        <mxCell id="4njEkcWV6SPJyhwRv9go-67" value="" style="edgeStyle=none;rounded=1;jumpStyle=none;html=1;shadow=0;labelBackgroundColor=none;startArrow=none;startFill=0;jettySize=auto;orthogonalLoop=1;strokeColor=#12AAB5;strokeWidth=3;fontFamily=Helvetica;fontSize=14;fontColor=#FFFFFF;spacing=5;fontStyle=1;fillColor=#b0e3e6;" parent="1" source="4njEkcWV6SPJyhwRv9go-57" target="4njEkcWV6SPJyhwRv9go-64" edge="1">
          <mxGeometry relative="1" as="geometry">
            <mxPoint x="1684" y="897.5" as="sourcePoint" />
            <mxPoint x="1709" y="897.5" as="targetPoint" />
          </mxGeometry>
        </mxCell>
        <mxCell id="4njEkcWV6SPJyhwRv9go-68" value="Приходить" style="rounded=1;whiteSpace=wrap;html=1;shadow=0;fillColor=#DEF5EB;fontFamily=Helvetica;fontSize=14;fontColor=#000000;align=center;spacing=5;fontStyle=0;arcSize=7;perimeterSpacing=2;" parent="1" vertex="1">
          <mxGeometry x="1454" y="824" width="82" height="60" as="geometry" />
        </mxCell>
        <mxCell id="4njEkcWV6SPJyhwRv9go-69" value="Обробляється" style="rounded=1;whiteSpace=wrap;html=1;shadow=0;fillColor=#DEF5EB;fontFamily=Helvetica;fontSize=14;fontColor=#000000;align=center;spacing=5;fontStyle=0;arcSize=7;perimeterSpacing=2;" parent="1" vertex="1">
          <mxGeometry x="1513" y="940" width="106" height="60" as="geometry" />
        </mxCell>
        <mxCell id="4njEkcWV6SPJyhwRv9go-70" value="Виходить" style="rounded=1;whiteSpace=wrap;html=1;shadow=0;fillColor=#DEF5EB;fontFamily=Helvetica;fontSize=14;fontColor=#000000;align=center;spacing=5;fontStyle=0;arcSize=7;perimeterSpacing=2;" parent="1" vertex="1">
          <mxGeometry x="1414" y="940" width="84" height="60" as="geometry" />
        </mxCell>
        <mxCell id="4njEkcWV6SPJyhwRv9go-71" value="" style="edgeStyle=none;rounded=1;jumpStyle=none;html=1;shadow=0;labelBackgroundColor=none;startArrow=none;startFill=0;jettySize=auto;orthogonalLoop=1;strokeColor=#12AAB5;strokeWidth=3;fontFamily=Helvetica;fontSize=14;fontColor=#FFFFFF;spacing=5;fontStyle=1;fillColor=#b0e3e6;exitX=1;exitY=0.75;exitDx=0;exitDy=0;" parent="1" source="4njEkcWV6SPJyhwRv9go-8" target="4njEkcWV6SPJyhwRv9go-68" edge="1">
          <mxGeometry relative="1" as="geometry">
            <mxPoint x="1385.8899999999999" y="1085.7500000000002" as="sourcePoint" />
            <mxPoint x="1640.8900000000003" y="997.5" as="targetPoint" />
          </mxGeometry>
        </mxCell>
        <mxCell id="4njEkcWV6SPJyhwRv9go-72" value="" style="edgeStyle=none;rounded=1;jumpStyle=none;html=1;shadow=0;labelBackgroundColor=none;startArrow=none;startFill=0;jettySize=auto;orthogonalLoop=1;strokeColor=#12AAB5;strokeWidth=3;fontFamily=Helvetica;fontSize=14;fontColor=#FFFFFF;spacing=5;fontStyle=1;fillColor=#b0e3e6;exitX=0.5;exitY=1;exitDx=0;exitDy=0;entryX=0.5;entryY=0;entryDx=0;entryDy=0;" parent="1" source="4njEkcWV6SPJyhwRv9go-8" target="4njEkcWV6SPJyhwRv9go-69" edge="1">
          <mxGeometry relative="1" as="geometry">
            <mxPoint x="1550.8899999999999" y="1139.477412731006" as="sourcePoint" />
            <mxPoint x="1718.582508613982" y="1283.5" as="targetPoint" />
          </mxGeometry>
        </mxCell>
        <mxCell id="4njEkcWV6SPJyhwRv9go-73" value="" style="edgeStyle=none;rounded=1;jumpStyle=none;html=1;shadow=0;labelBackgroundColor=none;startArrow=none;startFill=0;jettySize=auto;orthogonalLoop=1;strokeColor=#12AAB5;strokeWidth=3;fontFamily=Helvetica;fontSize=14;fontColor=#FFFFFF;spacing=5;fontStyle=1;fillColor=#b0e3e6;exitX=0.25;exitY=1;exitDx=0;exitDy=0;entryX=0.5;entryY=0;entryDx=0;entryDy=0;" parent="1" source="4njEkcWV6SPJyhwRv9go-8" target="4njEkcWV6SPJyhwRv9go-70" edge="1">
          <mxGeometry relative="1" as="geometry">
            <mxPoint x="1541.002343966713" y="1166.9999999999998" as="sourcePoint" />
            <mxPoint x="1725.8899999999999" y="1344.6234567901233" as="targetPoint" />
          </mxGeometry>
        </mxCell>
        <mxCell id="4njEkcWV6SPJyhwRv9go-74" value="через &#xa;певний час" style="fontFamily=Helvetica;fontSize=14;" parent="1" vertex="1">
          <mxGeometry x="1572" y="808" width="82" height="60" as="geometry" />
        </mxCell>
        <mxCell id="4njEkcWV6SPJyhwRv9go-75" value="" style="edgeStyle=none;rounded=1;jumpStyle=none;html=1;shadow=0;labelBackgroundColor=none;startArrow=none;startFill=0;jettySize=auto;orthogonalLoop=1;strokeColor=#12AAB5;strokeWidth=3;fontFamily=Helvetica;fontSize=14;fontColor=#FFFFFF;spacing=5;fontStyle=1;fillColor=#b0e3e6;entryX=0;entryY=0.5;entryDx=0;entryDy=0;" parent="1" source="4njEkcWV6SPJyhwRv9go-68" target="4njEkcWV6SPJyhwRv9go-74" edge="1">
          <mxGeometry relative="1" as="geometry">
            <mxPoint x="1492.64" y="1108.5" as="sourcePoint" />
            <mxPoint x="1575.7500000000005" y="978" as="targetPoint" />
          </mxGeometry>
        </mxCell>
        <mxCell id="4njEkcWV6SPJyhwRv9go-76" value="швидко/&#xa;повільно" style="fontFamily=Helvetica;fontSize=14;" parent="1" vertex="1">
          <mxGeometry x="1537" y="1036" width="93" height="60" as="geometry" />
        </mxCell>
        <mxCell id="4njEkcWV6SPJyhwRv9go-77" value="дружба/&#xa;ворожнеча" style="fontFamily=Helvetica;fontSize=14;" parent="1" vertex="1">
          <mxGeometry x="1442" y="1036" width="82" height="60" as="geometry" />
        </mxCell>
        <mxCell id="4njEkcWV6SPJyhwRv9go-78" value="" style="edgeStyle=none;rounded=1;jumpStyle=none;html=1;shadow=0;labelBackgroundColor=none;startArrow=none;startFill=0;jettySize=auto;orthogonalLoop=1;strokeColor=#12AAB5;strokeWidth=3;fontFamily=Helvetica;fontSize=14;fontColor=#FFFFFF;spacing=5;fontStyle=1;fillColor=#b0e3e6;entryX=0.5;entryY=0;entryDx=0;entryDy=0;" parent="1" source="4njEkcWV6SPJyhwRv9go-70" target="4njEkcWV6SPJyhwRv9go-77" edge="1">
          <mxGeometry relative="1" as="geometry">
            <mxPoint x="1718.5" y="1372.5" as="sourcePoint" />
            <mxPoint x="1641.5" y="1396.6234567901233" as="targetPoint" />
          </mxGeometry>
        </mxCell>
        <mxCell id="4njEkcWV6SPJyhwRv9go-79" value="" style="edgeStyle=none;rounded=1;jumpStyle=none;html=1;shadow=0;labelBackgroundColor=none;startArrow=none;startFill=0;jettySize=auto;orthogonalLoop=1;strokeColor=#12AAB5;strokeWidth=3;fontFamily=Helvetica;fontSize=14;fontColor=#FFFFFF;spacing=5;fontStyle=1;fillColor=#b0e3e6;" parent="1" source="4njEkcWV6SPJyhwRv9go-69" target="4njEkcWV6SPJyhwRv9go-76" edge="1">
          <mxGeometry relative="1" as="geometry">
            <mxPoint x="1820.8900000000003" y="1347.5" as="sourcePoint" />
            <mxPoint x="1845.8900000000003" y="1347.5" as="targetPoint" />
          </mxGeometry>
        </mxCell>
        <mxCell id="4njEkcWV6SPJyhwRv9go-80" value="Виходить" style="rounded=1;whiteSpace=wrap;html=1;shadow=0;fillColor=#fae8e6;fontFamily=Helvetica;fontSize=14;fontColor=#000000;align=center;spacing=5;fontStyle=0;arcSize=7;perimeterSpacing=2;direction=south;" parent="1" vertex="1">
          <mxGeometry x="127" y="352" width="82" height="60" as="geometry" />
        </mxCell>
        <mxCell id="4njEkcWV6SPJyhwRv9go-81" value="Приходить" style="rounded=1;whiteSpace=wrap;html=1;shadow=0;fillColor=#fae8e6;fontFamily=Helvetica;fontSize=14;fontColor=#000000;align=center;spacing=5;fontStyle=0;arcSize=7;perimeterSpacing=2;direction=south;" parent="1" vertex="1">
          <mxGeometry x="125" y="509" width="84" height="60" as="geometry" />
        </mxCell>
        <mxCell id="4njEkcWV6SPJyhwRv9go-82" value="місце&#xa;праці" style="fontFamily=Helvetica;fontSize=14;" parent="1" vertex="1">
          <mxGeometry x="7" y="350" width="82" height="60" as="geometry" />
        </mxCell>
        <mxCell id="4njEkcWV6SPJyhwRv9go-83" value="" style="edgeStyle=none;rounded=1;jumpStyle=none;html=1;shadow=0;labelBackgroundColor=none;startArrow=none;startFill=0;jettySize=auto;orthogonalLoop=1;strokeColor=#12AAB5;strokeWidth=3;fontFamily=Helvetica;fontSize=14;fontColor=#FFFFFF;spacing=5;fontStyle=1;fillColor=#b0e3e6;entryX=1;entryY=0.5;entryDx=0;entryDy=0;" parent="1" source="4njEkcWV6SPJyhwRv9go-80" target="4njEkcWV6SPJyhwRv9go-82" edge="1">
          <mxGeometry relative="1" as="geometry">
            <mxPoint x="120.5" y="417.5" as="sourcePoint" />
            <mxPoint x="112" y="365.5" as="targetPoint" />
          </mxGeometry>
        </mxCell>
        <mxCell id="4njEkcWV6SPJyhwRv9go-84" value="місце&#xa;праці" style="fontFamily=Helvetica;fontSize=14;" parent="1" vertex="1">
          <mxGeometry x="7" y="432" width="82" height="60" as="geometry" />
        </mxCell>
        <mxCell id="4njEkcWV6SPJyhwRv9go-85" value="місце&#xa;праці" style="fontFamily=Helvetica;fontSize=14;" parent="1" vertex="1">
          <mxGeometry x="4" y="509" width="86" height="60" as="geometry" />
        </mxCell>
        <mxCell id="4njEkcWV6SPJyhwRv9go-86" value="" style="edgeStyle=none;rounded=1;jumpStyle=none;html=1;shadow=0;labelBackgroundColor=none;startArrow=none;startFill=0;jettySize=auto;orthogonalLoop=1;strokeColor=#12AAB5;strokeWidth=3;fontFamily=Helvetica;fontSize=14;fontColor=#FFFFFF;spacing=5;fontStyle=1;fillColor=#b0e3e6;entryX=1;entryY=0.5;entryDx=0;entryDy=0;" parent="1" source="4njEkcWV6SPJyhwRv9go-81" target="4njEkcWV6SPJyhwRv9go-85" edge="1">
          <mxGeometry relative="1" as="geometry">
            <mxPoint x="113" y="646.5" as="sourcePoint" />
            <mxPoint x="97" y="544" as="targetPoint" />
          </mxGeometry>
        </mxCell>
        <mxCell id="4njEkcWV6SPJyhwRv9go-87" value="" style="edgeStyle=none;rounded=1;jumpStyle=none;html=1;shadow=0;labelBackgroundColor=none;startArrow=none;startFill=0;jettySize=auto;orthogonalLoop=1;strokeColor=#12AAB5;strokeWidth=3;fontFamily=Helvetica;fontSize=14;fontColor=#FFFFFF;spacing=5;fontStyle=1;fillColor=#b0e3e6;entryX=1;entryY=0.5;entryDx=0;entryDy=0;exitX=0.5;exitY=1;exitDx=0;exitDy=0;" parent="1" source="4njEkcWV6SPJyhwRv9go-96" target="4njEkcWV6SPJyhwRv9go-84" edge="1">
          <mxGeometry relative="1" as="geometry">
            <mxPoint x="-5" y="459.07563025210106" as="sourcePoint" />
            <mxPoint x="148" y="656.5" as="targetPoint" />
          </mxGeometry>
        </mxCell>
        <mxCell id="4njEkcWV6SPJyhwRv9go-88" value="Виходить" style="rounded=1;whiteSpace=wrap;html=1;shadow=0;fillColor=#fae8e6;fontFamily=Helvetica;fontSize=14;fontColor=#000000;align=center;spacing=5;fontStyle=0;arcSize=7;perimeterSpacing=2;direction=south;" parent="1" vertex="1">
          <mxGeometry x="120" y="583" width="82" height="60" as="geometry" />
        </mxCell>
        <mxCell id="4njEkcWV6SPJyhwRv9go-89" value="Приходить" style="rounded=1;whiteSpace=wrap;html=1;shadow=0;fillColor=#fae8e6;fontFamily=Helvetica;fontSize=14;fontColor=#000000;align=center;spacing=5;fontStyle=0;arcSize=7;perimeterSpacing=2;direction=south;" parent="1" vertex="1">
          <mxGeometry x="119" y="739" width="84" height="60" as="geometry" />
        </mxCell>
        <mxCell id="4njEkcWV6SPJyhwRv9go-90" value="кінець&#xa;роботи" style="fontFamily=Helvetica;fontSize=14;" parent="1" vertex="1">
          <mxGeometry x="4" y="583" width="82" height="60" as="geometry" />
        </mxCell>
        <mxCell id="4njEkcWV6SPJyhwRv9go-91" value="" style="edgeStyle=none;rounded=1;jumpStyle=none;html=1;shadow=0;labelBackgroundColor=none;startArrow=none;startFill=0;jettySize=auto;orthogonalLoop=1;strokeColor=#12AAB5;strokeWidth=3;fontFamily=Helvetica;fontSize=14;fontColor=#FFFFFF;spacing=5;fontStyle=1;fillColor=#b0e3e6;entryX=1;entryY=0.5;entryDx=0;entryDy=0;" parent="1" source="4njEkcWV6SPJyhwRv9go-88" target="4njEkcWV6SPJyhwRv9go-90" edge="1">
          <mxGeometry relative="1" as="geometry">
            <mxPoint x="124.5" y="650.5" as="sourcePoint" />
            <mxPoint x="116" y="598.5" as="targetPoint" />
          </mxGeometry>
        </mxCell>
        <mxCell id="4njEkcWV6SPJyhwRv9go-92" value="впродовж&#xa;роботи" style="fontFamily=Helvetica;fontSize=14;" parent="1" vertex="1">
          <mxGeometry x="4" y="662.25" width="82" height="60" as="geometry" />
        </mxCell>
        <mxCell id="4njEkcWV6SPJyhwRv9go-93" value="початок&#xa;роботи" style="fontFamily=Helvetica;fontSize=14;" parent="1" vertex="1">
          <mxGeometry x="4" y="741" width="82" height="60" as="geometry" />
        </mxCell>
        <mxCell id="4njEkcWV6SPJyhwRv9go-94" value="" style="edgeStyle=none;rounded=1;jumpStyle=none;html=1;shadow=0;labelBackgroundColor=none;startArrow=none;startFill=0;jettySize=auto;orthogonalLoop=1;strokeColor=#12AAB5;strokeWidth=3;fontFamily=Helvetica;fontSize=14;fontColor=#FFFFFF;spacing=5;fontStyle=1;fillColor=#b0e3e6;entryX=1.008;entryY=0.406;entryDx=0;entryDy=0;entryPerimeter=0;exitX=0.5;exitY=1;exitDx=0;exitDy=0;" parent="1" source="4njEkcWV6SPJyhwRv9go-89" target="4njEkcWV6SPJyhwRv9go-93" edge="1">
          <mxGeometry relative="1" as="geometry">
            <mxPoint x="117" y="879.5" as="sourcePoint" />
            <mxPoint x="40" y="903.6234567901233" as="targetPoint" />
          </mxGeometry>
        </mxCell>
        <mxCell id="4njEkcWV6SPJyhwRv9go-95" value="" style="edgeStyle=none;rounded=1;jumpStyle=none;html=1;shadow=0;labelBackgroundColor=none;startArrow=none;startFill=0;jettySize=auto;orthogonalLoop=1;strokeColor=#12AAB5;strokeWidth=3;fontFamily=Helvetica;fontSize=14;fontColor=#FFFFFF;spacing=5;fontStyle=1;fillColor=#b0e3e6;entryX=1;entryY=0.5;entryDx=0;entryDy=0;" parent="1" source="4njEkcWV6SPJyhwRv9go-97" target="4njEkcWV6SPJyhwRv9go-92" edge="1">
          <mxGeometry relative="1" as="geometry">
            <mxPoint x="-0.9999999999995453" y="692.0178571428571" as="sourcePoint" />
            <mxPoint x="152" y="889.5" as="targetPoint" />
          </mxGeometry>
        </mxCell>
        <mxCell id="4njEkcWV6SPJyhwRv9go-96" value="Обробляється" style="rounded=1;whiteSpace=wrap;html=1;shadow=0;fillColor=#fae8e6;fontFamily=Helvetica;fontSize=14;fontColor=#000000;align=center;spacing=5;fontStyle=0;arcSize=7;perimeterSpacing=2;direction=south;" parent="1" vertex="1">
          <mxGeometry x="115" y="432" width="106" height="60" as="geometry" />
        </mxCell>
        <mxCell id="4njEkcWV6SPJyhwRv9go-97" value="Обробляється" style="rounded=1;whiteSpace=wrap;html=1;shadow=0;fillColor=#fae8e6;fontFamily=Helvetica;fontSize=14;fontColor=#000000;align=center;spacing=5;fontStyle=0;arcSize=7;perimeterSpacing=2;direction=south;" parent="1" vertex="1">
          <mxGeometry x="111" y="661" width="106" height="60" as="geometry" />
        </mxCell>
        <mxCell id="4njEkcWV6SPJyhwRv9go-98" value="Приходить" style="rounded=1;whiteSpace=wrap;html=1;shadow=0;fillColor=#fae8e6;fontFamily=Helvetica;fontSize=14;fontColor=#000000;align=center;spacing=5;fontStyle=0;arcSize=7;perimeterSpacing=2;direction=south;" parent="1" vertex="1">
          <mxGeometry x="120" y="280" width="84" height="58" as="geometry" />
        </mxCell>
        <mxCell id="4njEkcWV6SPJyhwRv9go-99" value="Обробляється" style="rounded=1;whiteSpace=wrap;html=1;shadow=0;fillColor=#fae8e6;fontFamily=Helvetica;fontSize=14;fontColor=#000000;align=center;spacing=5;fontStyle=0;arcSize=7;perimeterSpacing=2;direction=south;" parent="1" vertex="1">
          <mxGeometry x="16" y="162.5" width="110" height="59" as="geometry" />
        </mxCell>
        <mxCell id="4njEkcWV6SPJyhwRv9go-100" value="Виходить" style="rounded=1;whiteSpace=wrap;html=1;shadow=0;fillColor=#fae8e6;fontFamily=Helvetica;fontSize=14;fontColor=#000000;align=center;spacing=5;fontStyle=0;arcSize=7;perimeterSpacing=2;direction=south;" parent="1" vertex="1">
          <mxGeometry x="148" y="161.5" width="84" height="60" as="geometry" />
        </mxCell>
        <mxCell id="4njEkcWV6SPJyhwRv9go-101" value="" style="edgeStyle=none;rounded=1;jumpStyle=none;html=1;shadow=0;labelBackgroundColor=none;startArrow=none;startFill=0;jettySize=auto;orthogonalLoop=1;strokeColor=#12AAB5;strokeWidth=3;fontFamily=Helvetica;fontSize=14;fontColor=#FFFFFF;spacing=5;fontStyle=1;fillColor=#b0e3e6;exitX=0;exitY=0.5;exitDx=0;exitDy=0;entryX=0.5;entryY=0;entryDx=0;entryDy=0;" parent="1" source="4njEkcWV6SPJyhwRv9go-31" target="4njEkcWV6SPJyhwRv9go-98" edge="1">
          <mxGeometry relative="1" as="geometry">
            <mxPoint x="379" y="323" as="sourcePoint" />
            <mxPoint x="427" y="252.9999999999999" as="targetPoint" />
          </mxGeometry>
        </mxCell>
        <mxCell id="4njEkcWV6SPJyhwRv9go-102" value="" style="edgeStyle=none;rounded=1;jumpStyle=none;html=1;shadow=0;labelBackgroundColor=none;startArrow=none;startFill=0;jettySize=auto;orthogonalLoop=1;strokeColor=#12AAB5;strokeWidth=3;fontFamily=Helvetica;fontSize=14;fontColor=#FFFFFF;spacing=5;fontStyle=1;fillColor=#b0e3e6;exitX=0;exitY=0;exitDx=0;exitDy=0;" parent="1" source="4njEkcWV6SPJyhwRv9go-31" target="4njEkcWV6SPJyhwRv9go-99" edge="1">
          <mxGeometry relative="1" as="geometry">
            <mxPoint x="378.5340000000001" y="324.9759999999999" as="sourcePoint" />
            <mxPoint x="457.6925086139822" y="263.9999999999999" as="targetPoint" />
          </mxGeometry>
        </mxCell>
        <mxCell id="4njEkcWV6SPJyhwRv9go-103" value="небезпека" style="fontFamily=Helvetica;fontSize=14;" parent="1" vertex="1">
          <mxGeometry x="7" y="279" width="82" height="60" as="geometry" />
        </mxCell>
        <mxCell id="4njEkcWV6SPJyhwRv9go-104" value="" style="edgeStyle=none;rounded=1;jumpStyle=none;html=1;shadow=0;labelBackgroundColor=none;startArrow=none;startFill=0;jettySize=auto;orthogonalLoop=1;strokeColor=#12AAB5;strokeWidth=3;fontFamily=Helvetica;fontSize=14;fontColor=#FFFFFF;spacing=5;fontStyle=1;fillColor=#b0e3e6;entryX=1;entryY=0.5;entryDx=0;entryDy=0;" parent="1" source="4njEkcWV6SPJyhwRv9go-98" target="4njEkcWV6SPJyhwRv9go-103" edge="1">
          <mxGeometry relative="1" as="geometry">
            <mxPoint x="479.5" y="342" as="sourcePoint" />
            <mxPoint x="471" y="290" as="targetPoint" />
          </mxGeometry>
        </mxCell>
        <mxCell id="4njEkcWV6SPJyhwRv9go-105" value="правила &#xa;безпеки" style="fontFamily=Helvetica;fontSize=14;" parent="1" vertex="1">
          <mxGeometry x="10" y="74" width="100" height="60" as="geometry" />
        </mxCell>
        <mxCell id="4njEkcWV6SPJyhwRv9go-106" value="безпечна &#xa;робота" style="fontFamily=Helvetica;fontSize=14;" parent="1" vertex="1">
          <mxGeometry x="126" y="74" width="82" height="60" as="geometry" />
        </mxCell>
        <mxCell id="4njEkcWV6SPJyhwRv9go-107" value="" style="edgeStyle=none;rounded=1;jumpStyle=none;html=1;shadow=0;labelBackgroundColor=none;startArrow=none;startFill=0;jettySize=auto;orthogonalLoop=1;strokeColor=#12AAB5;strokeWidth=3;fontFamily=Helvetica;fontSize=14;fontColor=#FFFFFF;spacing=5;fontStyle=1;fillColor=#b0e3e6;" parent="1" source="4njEkcWV6SPJyhwRv9go-100" target="4njEkcWV6SPJyhwRv9go-106" edge="1">
          <mxGeometry relative="1" as="geometry">
            <mxPoint x="344" y="270" as="sourcePoint" />
            <mxPoint x="-53" y="123" as="targetPoint" />
          </mxGeometry>
        </mxCell>
        <mxCell id="4njEkcWV6SPJyhwRv9go-108" value="" style="edgeStyle=none;rounded=1;jumpStyle=none;html=1;shadow=0;labelBackgroundColor=none;startArrow=none;startFill=0;jettySize=auto;orthogonalLoop=1;strokeColor=#12AAB5;strokeWidth=3;fontFamily=Helvetica;fontSize=14;fontColor=#FFFFFF;spacing=5;fontStyle=1;fillColor=#b0e3e6;" parent="1" source="4njEkcWV6SPJyhwRv9go-99" target="4njEkcWV6SPJyhwRv9go-105" edge="1">
          <mxGeometry relative="1" as="geometry">
            <mxPoint x="516" y="280" as="sourcePoint" />
            <mxPoint x="541" y="280" as="targetPoint" />
          </mxGeometry>
        </mxCell>
        <mxCell id="4njEkcWV6SPJyhwRv9go-109" value="Приходить" style="rounded=1;whiteSpace=wrap;html=1;shadow=0;fillColor=#f2f9fa;fontFamily=Helvetica;fontSize=14;fontColor=#000000;align=center;spacing=5;fontStyle=0;arcSize=7;perimeterSpacing=2;" parent="1" vertex="1">
          <mxGeometry x="512" y="910" width="82" height="60" as="geometry" />
        </mxCell>
        <mxCell id="4njEkcWV6SPJyhwRv9go-110" value="Обробляється" style="rounded=1;whiteSpace=wrap;html=1;shadow=0;fillColor=#f2f9fa;fontFamily=Helvetica;fontSize=14;fontColor=#000000;align=center;spacing=5;fontStyle=0;arcSize=7;perimeterSpacing=2;" parent="1" vertex="1">
          <mxGeometry x="383" y="936" width="106" height="60" as="geometry" />
        </mxCell>
        <mxCell id="4njEkcWV6SPJyhwRv9go-111" value="Виходить" style="rounded=1;whiteSpace=wrap;html=1;shadow=0;fillColor=#f2f9fa;fontFamily=Helvetica;fontSize=14;fontColor=#000000;align=center;spacing=5;fontStyle=0;arcSize=7;perimeterSpacing=2;" parent="1" vertex="1">
          <mxGeometry x="282" y="940" width="84" height="60" as="geometry" />
        </mxCell>
        <mxCell id="4njEkcWV6SPJyhwRv9go-112" value="" style="edgeStyle=none;rounded=1;jumpStyle=none;html=1;shadow=0;labelBackgroundColor=none;startArrow=none;startFill=0;jettySize=auto;orthogonalLoop=1;strokeColor=#12AAB5;strokeWidth=3;fontFamily=Helvetica;fontSize=14;fontColor=#FFFFFF;spacing=5;fontStyle=1;fillColor=#b0e3e6;" parent="1" source="4njEkcWV6SPJyhwRv9go-23" target="4njEkcWV6SPJyhwRv9go-109" edge="1">
          <mxGeometry relative="1" as="geometry">
            <mxPoint x="274" y="778" as="sourcePoint" />
            <mxPoint x="519.8900000000001" y="899.5" as="targetPoint" />
          </mxGeometry>
        </mxCell>
        <mxCell id="4njEkcWV6SPJyhwRv9go-113" value="" style="edgeStyle=none;rounded=1;jumpStyle=none;html=1;shadow=0;labelBackgroundColor=none;startArrow=none;startFill=0;jettySize=auto;orthogonalLoop=1;strokeColor=#12AAB5;strokeWidth=3;fontFamily=Helvetica;fontSize=14;fontColor=#FFFFFF;spacing=5;fontStyle=1;fillColor=#b0e3e6;exitX=0.177;exitY=0.953;exitDx=0;exitDy=0;exitPerimeter=0;" parent="1" source="4njEkcWV6SPJyhwRv9go-23" target="4njEkcWV6SPJyhwRv9go-110" edge="1">
          <mxGeometry relative="1" as="geometry">
            <mxPoint x="237.50000000000045" y="794" as="sourcePoint" />
            <mxPoint x="432.5825086139821" y="1168.5" as="targetPoint" />
          </mxGeometry>
        </mxCell>
        <mxCell id="4njEkcWV6SPJyhwRv9go-114" value="" style="edgeStyle=none;rounded=1;jumpStyle=none;html=1;shadow=0;labelBackgroundColor=none;startArrow=none;startFill=0;jettySize=auto;orthogonalLoop=1;strokeColor=#12AAB5;strokeWidth=3;fontFamily=Helvetica;fontSize=14;fontColor=#FFFFFF;spacing=5;fontStyle=1;fillColor=#b0e3e6;exitX=0;exitY=0.5;exitDx=0;exitDy=0;" parent="1" source="4njEkcWV6SPJyhwRv9go-23" target="4njEkcWV6SPJyhwRv9go-111" edge="1">
          <mxGeometry relative="1" as="geometry">
            <mxPoint x="219.25" y="794" as="sourcePoint" />
            <mxPoint x="439.8899999999999" y="1229.6234567901233" as="targetPoint" />
          </mxGeometry>
        </mxCell>
        <mxCell id="4njEkcWV6SPJyhwRv9go-115" value="фотони" style="fontFamily=Helvetica;fontSize=14;" parent="1" vertex="1">
          <mxGeometry x="454" y="1036" width="82" height="60" as="geometry" />
        </mxCell>
        <mxCell id="4njEkcWV6SPJyhwRv9go-116" value="" style="edgeStyle=none;rounded=1;jumpStyle=none;html=1;shadow=0;labelBackgroundColor=none;startArrow=none;startFill=0;jettySize=auto;orthogonalLoop=1;strokeColor=#12AAB5;strokeWidth=3;fontFamily=Helvetica;fontSize=14;fontColor=#FFFFFF;spacing=5;fontStyle=1;fillColor=#b0e3e6;" parent="1" source="4njEkcWV6SPJyhwRv9go-109" edge="1">
          <mxGeometry relative="1" as="geometry">
            <mxPoint x="370.3900000000001" y="993.5" as="sourcePoint" />
            <mxPoint x="514" y="1030" as="targetPoint" />
          </mxGeometry>
        </mxCell>
        <mxCell id="4njEkcWV6SPJyhwRv9go-117" value="ступінь&#xa;освітленя" style="fontFamily=Helvetica;fontSize=14;" parent="1" vertex="1">
          <mxGeometry x="356" y="1036" width="82" height="60" as="geometry" />
        </mxCell>
        <mxCell id="4njEkcWV6SPJyhwRv9go-118" value="світло" style="fontFamily=Helvetica;fontSize=14;" parent="1" vertex="1">
          <mxGeometry x="260" y="1036" width="82" height="60" as="geometry" />
        </mxCell>
        <mxCell id="4njEkcWV6SPJyhwRv9go-119" value="" style="edgeStyle=none;rounded=1;jumpStyle=none;html=1;shadow=0;labelBackgroundColor=none;startArrow=none;startFill=0;jettySize=auto;orthogonalLoop=1;strokeColor=#12AAB5;strokeWidth=3;fontFamily=Helvetica;fontSize=14;fontColor=#FFFFFF;spacing=5;fontStyle=1;fillColor=#b0e3e6;entryX=0.5;entryY=0;entryDx=0;entryDy=0;" parent="1" source="4njEkcWV6SPJyhwRv9go-111" target="4njEkcWV6SPJyhwRv9go-118" edge="1">
          <mxGeometry relative="1" as="geometry">
            <mxPoint x="432.5" y="1257.5" as="sourcePoint" />
            <mxPoint x="355.5" y="1281.6234567901233" as="targetPoint" />
          </mxGeometry>
        </mxCell>
        <mxCell id="4njEkcWV6SPJyhwRv9go-120" value="" style="edgeStyle=none;rounded=1;jumpStyle=none;html=1;shadow=0;labelBackgroundColor=none;startArrow=none;startFill=0;jettySize=auto;orthogonalLoop=1;strokeColor=#12AAB5;strokeWidth=3;fontFamily=Helvetica;fontSize=14;fontColor=#FFFFFF;spacing=5;fontStyle=1;fillColor=#b0e3e6;exitX=0.25;exitY=1;exitDx=0;exitDy=0;" parent="1" source="4njEkcWV6SPJyhwRv9go-110" target="4njEkcWV6SPJyhwRv9go-117" edge="1">
          <mxGeometry relative="1" as="geometry">
            <mxPoint x="386.96000000000004" y="998" as="sourcePoint" />
            <mxPoint x="544.8900000000001" y="1232.5" as="targetPoint" />
          </mxGeometry>
        </mxCell>
        <mxCell id="4njEkcWV6SPJyhwRv9go-121" value="" style="edgeStyle=none;rounded=1;jumpStyle=none;html=1;shadow=0;labelBackgroundColor=none;startArrow=none;startFill=0;jettySize=auto;orthogonalLoop=1;strokeColor=#12AAB5;strokeWidth=3;fontFamily=Helvetica;fontSize=14;fontColor=#FFFFFF;spacing=5;fontStyle=1;fillColor=#b0e3e6;entryX=0.5;entryY=0;entryDx=0;entryDy=0;" parent="1" source="4njEkcWV6SPJyhwRv9go-33" target="4njEkcWV6SPJyhwRv9go-80" edge="1">
          <mxGeometry relative="1" as="geometry">
            <mxPoint x="107" y="368.9113924050632" as="sourcePoint" />
            <mxPoint x="71.00000000000045" y="368" as="targetPoint" />
          </mxGeometry>
        </mxCell>
        <mxCell id="4njEkcWV6SPJyhwRv9go-122" value="" style="edgeStyle=none;rounded=1;jumpStyle=none;html=1;shadow=0;labelBackgroundColor=none;startArrow=none;startFill=0;jettySize=auto;orthogonalLoop=1;strokeColor=#12AAB5;strokeWidth=3;fontFamily=Helvetica;fontSize=14;fontColor=#FFFFFF;spacing=5;fontStyle=1;fillColor=#b0e3e6;entryX=0.5;entryY=0;entryDx=0;entryDy=0;exitX=0;exitY=0.5;exitDx=0;exitDy=0;" parent="1" source="4njEkcWV6SPJyhwRv9go-33" target="4njEkcWV6SPJyhwRv9go-96" edge="1">
          <mxGeometry relative="1" as="geometry">
            <mxPoint x="248.37142857142817" y="442.9999999999998" as="sourcePoint" />
            <mxPoint x="193" y="385.9999999999998" as="targetPoint" />
          </mxGeometry>
        </mxCell>
        <mxCell id="4njEkcWV6SPJyhwRv9go-123" value="" style="edgeStyle=none;rounded=1;jumpStyle=none;html=1;shadow=0;labelBackgroundColor=none;startArrow=none;startFill=0;jettySize=auto;orthogonalLoop=1;strokeColor=#12AAB5;strokeWidth=3;fontFamily=Helvetica;fontSize=14;fontColor=#FFFFFF;spacing=5;fontStyle=1;fillColor=#b0e3e6;entryX=0.5;entryY=0;entryDx=0;entryDy=0;exitX=0;exitY=0.75;exitDx=0;exitDy=0;" parent="1" source="4njEkcWV6SPJyhwRv9go-33" target="4njEkcWV6SPJyhwRv9go-81" edge="1">
          <mxGeometry relative="1" as="geometry">
            <mxPoint x="249" y="485" as="sourcePoint" />
            <mxPoint x="203" y="395.9999999999998" as="targetPoint" />
          </mxGeometry>
        </mxCell>
        <mxCell id="4njEkcWV6SPJyhwRv9go-124" value="" style="edgeStyle=none;rounded=1;jumpStyle=none;html=1;shadow=0;labelBackgroundColor=none;startArrow=none;startFill=0;jettySize=auto;orthogonalLoop=1;strokeColor=#12AAB5;strokeWidth=3;fontFamily=Helvetica;fontSize=14;fontColor=#FFFFFF;spacing=5;fontStyle=1;fillColor=#b0e3e6;exitX=0;exitY=0.25;exitDx=0;exitDy=0;" parent="1" source="4njEkcWV6SPJyhwRv9go-35" target="4njEkcWV6SPJyhwRv9go-88" edge="1">
          <mxGeometry relative="1" as="geometry">
            <mxPoint x="257" y="623" as="sourcePoint" />
            <mxPoint x="213" y="405.9999999999998" as="targetPoint" />
          </mxGeometry>
        </mxCell>
        <mxCell id="4njEkcWV6SPJyhwRv9go-125" value="" style="edgeStyle=none;rounded=1;jumpStyle=none;html=1;shadow=0;labelBackgroundColor=none;startArrow=none;startFill=0;jettySize=auto;orthogonalLoop=1;strokeColor=#12AAB5;strokeWidth=3;fontFamily=Helvetica;fontSize=14;fontColor=#FFFFFF;spacing=5;fontStyle=1;fillColor=#b0e3e6;entryX=0.5;entryY=0;entryDx=0;entryDy=0;exitX=0;exitY=0.75;exitDx=0;exitDy=0;" parent="1" source="4njEkcWV6SPJyhwRv9go-35" target="4njEkcWV6SPJyhwRv9go-97" edge="1">
          <mxGeometry relative="1" as="geometry">
            <mxPoint x="278.37142857142817" y="472.9999999999998" as="sourcePoint" />
            <mxPoint x="223" y="415.9999999999998" as="targetPoint" />
          </mxGeometry>
        </mxCell>
        <mxCell id="4njEkcWV6SPJyhwRv9go-126" value="" style="edgeStyle=none;rounded=1;jumpStyle=none;html=1;shadow=0;labelBackgroundColor=none;startArrow=none;startFill=0;jettySize=auto;orthogonalLoop=1;strokeColor=#12AAB5;strokeWidth=3;fontFamily=Helvetica;fontSize=14;fontColor=#FFFFFF;spacing=5;fontStyle=1;fillColor=#b0e3e6;entryX=0.5;entryY=0;entryDx=0;entryDy=0;exitX=0.25;exitY=1;exitDx=0;exitDy=0;" parent="1" source="4njEkcWV6SPJyhwRv9go-35" target="4njEkcWV6SPJyhwRv9go-89" edge="1">
          <mxGeometry relative="1" as="geometry">
            <mxPoint x="257" y="676" as="sourcePoint" />
            <mxPoint x="233" y="425.9999999999998" as="targetPoint" />
          </mxGeometry>
        </mxCell>
        <mxCell id="4njEkcWV6SPJyhwRv9go-127" value="Приходить" style="rounded=1;whiteSpace=wrap;html=1;shadow=0;fillColor=#f2f9fa;fontFamily=Helvetica;fontSize=14;fontColor=#000000;align=center;spacing=5;fontStyle=0;arcSize=7;perimeterSpacing=2;" parent="1" vertex="1">
          <mxGeometry x="1319.5" y="940" width="82" height="60" as="geometry" />
        </mxCell>
        <mxCell id="4njEkcWV6SPJyhwRv9go-128" value="Обробляється" style="rounded=1;whiteSpace=wrap;html=1;shadow=0;fillColor=#f2f9fa;fontFamily=Helvetica;fontSize=14;fontColor=#000000;align=center;spacing=5;fontStyle=0;arcSize=7;perimeterSpacing=2;" parent="1" vertex="1">
          <mxGeometry x="1195" y="936" width="106" height="60" as="geometry" />
        </mxCell>
        <mxCell id="4njEkcWV6SPJyhwRv9go-129" value="Виходить" style="rounded=1;whiteSpace=wrap;html=1;shadow=0;fillColor=#f2f9fa;fontFamily=Helvetica;fontSize=14;fontColor=#000000;align=center;spacing=5;fontStyle=0;arcSize=7;perimeterSpacing=2;" parent="1" vertex="1">
          <mxGeometry x="1096" y="910" width="84" height="60" as="geometry" />
        </mxCell>
        <mxCell id="4njEkcWV6SPJyhwRv9go-130" value="" style="edgeStyle=none;rounded=1;jumpStyle=none;html=1;shadow=0;labelBackgroundColor=none;startArrow=none;startFill=0;jettySize=auto;orthogonalLoop=1;strokeColor=#12AAB5;strokeWidth=3;fontFamily=Helvetica;fontSize=14;fontColor=#FFFFFF;spacing=5;fontStyle=1;fillColor=#b0e3e6;exitX=1;exitY=0.75;exitDx=0;exitDy=0;entryX=0.5;entryY=0;entryDx=0;entryDy=0;" parent="1" source="4njEkcWV6SPJyhwRv9go-29" target="4njEkcWV6SPJyhwRv9go-127" edge="1">
          <mxGeometry relative="1" as="geometry">
            <mxPoint x="1233.4999999999995" y="928" as="sourcePoint" />
            <mxPoint x="1479.39" y="1049.5" as="targetPoint" />
          </mxGeometry>
        </mxCell>
        <mxCell id="4njEkcWV6SPJyhwRv9go-131" value="" style="edgeStyle=none;rounded=1;jumpStyle=none;html=1;shadow=0;labelBackgroundColor=none;startArrow=none;startFill=0;jettySize=auto;orthogonalLoop=1;strokeColor=#12AAB5;strokeWidth=3;fontFamily=Helvetica;fontSize=14;fontColor=#FFFFFF;spacing=5;fontStyle=1;fillColor=#b0e3e6;exitX=0.75;exitY=1;exitDx=0;exitDy=0;entryX=0.5;entryY=0;entryDx=0;entryDy=0;" parent="1" source="4njEkcWV6SPJyhwRv9go-29" target="4njEkcWV6SPJyhwRv9go-128" edge="1">
          <mxGeometry relative="1" as="geometry">
            <mxPoint x="1197" y="943.9999999999998" as="sourcePoint" />
            <mxPoint x="1392.082508613982" y="1318.5" as="targetPoint" />
          </mxGeometry>
        </mxCell>
        <mxCell id="4njEkcWV6SPJyhwRv9go-132" value="" style="edgeStyle=none;rounded=1;jumpStyle=none;html=1;shadow=0;labelBackgroundColor=none;startArrow=none;startFill=0;jettySize=auto;orthogonalLoop=1;strokeColor=#12AAB5;strokeWidth=3;fontFamily=Helvetica;fontSize=14;fontColor=#FFFFFF;spacing=5;fontStyle=1;fillColor=#b0e3e6;exitX=0.5;exitY=1;exitDx=0;exitDy=0;" parent="1" source="4njEkcWV6SPJyhwRv9go-29" target="4njEkcWV6SPJyhwRv9go-129" edge="1">
          <mxGeometry relative="1" as="geometry">
            <mxPoint x="1178.75" y="943.9999999999998" as="sourcePoint" />
            <mxPoint x="1399.3899999999999" y="1379.6234567901233" as="targetPoint" />
          </mxGeometry>
        </mxCell>
        <mxCell id="4njEkcWV6SPJyhwRv9go-133" value="з &#xa;навколишнього&#xa;середовища" style="fontFamily=Helvetica;fontSize=14;" parent="1" vertex="1">
          <mxGeometry x="1347" y="1036" width="82" height="60" as="geometry" />
        </mxCell>
        <mxCell id="4njEkcWV6SPJyhwRv9go-134" value="" style="edgeStyle=none;rounded=1;jumpStyle=none;html=1;shadow=0;labelBackgroundColor=none;startArrow=none;startFill=0;jettySize=auto;orthogonalLoop=1;strokeColor=#12AAB5;strokeWidth=3;fontFamily=Helvetica;fontSize=14;fontColor=#FFFFFF;spacing=5;fontStyle=1;fillColor=#b0e3e6;entryX=0.25;entryY=0;entryDx=0;entryDy=0;" parent="1" source="4njEkcWV6SPJyhwRv9go-127" target="4njEkcWV6SPJyhwRv9go-133" edge="1">
          <mxGeometry relative="1" as="geometry">
            <mxPoint x="1329.89" y="1143.5" as="sourcePoint" />
            <mxPoint x="1321.39" y="1091.5" as="targetPoint" />
          </mxGeometry>
        </mxCell>
        <mxCell id="4njEkcWV6SPJyhwRv9go-135" value="в приміщені" style="fontFamily=Helvetica;fontSize=14;" parent="1" vertex="1">
          <mxGeometry x="1249" y="1036" width="82" height="60" as="geometry" />
        </mxCell>
        <mxCell id="4njEkcWV6SPJyhwRv9go-136" value="в зір" style="fontFamily=Helvetica;fontSize=14;" parent="1" vertex="1">
          <mxGeometry x="1140" y="1036" width="93.5" height="60" as="geometry" />
        </mxCell>
        <mxCell id="4njEkcWV6SPJyhwRv9go-137" value="" style="edgeStyle=none;rounded=1;jumpStyle=none;html=1;shadow=0;labelBackgroundColor=none;startArrow=none;startFill=0;jettySize=auto;orthogonalLoop=1;strokeColor=#12AAB5;strokeWidth=3;fontFamily=Helvetica;fontSize=14;fontColor=#FFFFFF;spacing=5;fontStyle=1;fillColor=#b0e3e6;entryX=0.5;entryY=0;entryDx=0;entryDy=0;" parent="1" source="4njEkcWV6SPJyhwRv9go-129" target="4njEkcWV6SPJyhwRv9go-136" edge="1">
          <mxGeometry relative="1" as="geometry">
            <mxPoint x="1392" y="1407.5" as="sourcePoint" />
            <mxPoint x="1315" y="1431.6234567901233" as="targetPoint" />
          </mxGeometry>
        </mxCell>
        <mxCell id="4njEkcWV6SPJyhwRv9go-138" value="" style="edgeStyle=none;rounded=1;jumpStyle=none;html=1;shadow=0;labelBackgroundColor=none;startArrow=none;startFill=0;jettySize=auto;orthogonalLoop=1;strokeColor=#12AAB5;strokeWidth=3;fontFamily=Helvetica;fontSize=14;fontColor=#FFFFFF;spacing=5;fontStyle=1;fillColor=#b0e3e6;" parent="1" source="4njEkcWV6SPJyhwRv9go-128" target="4njEkcWV6SPJyhwRv9go-135" edge="1">
          <mxGeometry relative="1" as="geometry">
            <mxPoint x="1494.39" y="1382.5" as="sourcePoint" />
            <mxPoint x="1519.39" y="1382.5" as="targetPoint" />
          </mxGeometry>
        </mxCell>
        <mxCell id="4njEkcWV6SPJyhwRv9go-139" value="Приходить" style="rounded=1;whiteSpace=wrap;html=1;shadow=0;fillColor=#f2f9fa;fontFamily=Helvetica;fontSize=14;fontColor=#000000;align=center;spacing=5;fontStyle=0;arcSize=7;perimeterSpacing=2;" parent="1" vertex="1">
          <mxGeometry x="1014" y="832" width="82" height="60" as="geometry" />
        </mxCell>
        <mxCell id="4njEkcWV6SPJyhwRv9go-140" value="Обробляється" style="rounded=1;whiteSpace=wrap;html=1;shadow=0;fillColor=#f2f9fa;fontFamily=Helvetica;fontSize=14;fontColor=#000000;align=center;spacing=5;fontStyle=0;arcSize=7;perimeterSpacing=2;" parent="1" vertex="1">
          <mxGeometry x="942" y="923" width="106" height="60" as="geometry" />
        </mxCell>
        <mxCell id="4njEkcWV6SPJyhwRv9go-141" value="Виходить" style="rounded=1;whiteSpace=wrap;html=1;shadow=0;fillColor=#f2f9fa;fontFamily=Helvetica;fontSize=14;fontColor=#000000;align=center;spacing=5;fontStyle=0;arcSize=7;perimeterSpacing=2;" parent="1" vertex="1">
          <mxGeometry x="847" y="923" width="84" height="60" as="geometry" />
        </mxCell>
        <mxCell id="4njEkcWV6SPJyhwRv9go-142" value="" style="edgeStyle=none;rounded=1;jumpStyle=none;html=1;shadow=0;labelBackgroundColor=none;startArrow=none;startFill=0;jettySize=auto;orthogonalLoop=1;strokeColor=#12AAB5;strokeWidth=3;fontFamily=Helvetica;fontSize=14;fontColor=#FFFFFF;spacing=5;fontStyle=1;fillColor=#b0e3e6;exitX=1;exitY=0.5;exitDx=0;exitDy=0;" parent="1" source="4njEkcWV6SPJyhwRv9go-27" target="4njEkcWV6SPJyhwRv9go-139" edge="1">
          <mxGeometry relative="1" as="geometry">
            <mxPoint x="789" y="850.9999999999998" as="sourcePoint" />
            <mxPoint x="1002.3900000000001" y="1083.5" as="targetPoint" />
          </mxGeometry>
        </mxCell>
        <mxCell id="4njEkcWV6SPJyhwRv9go-143" value="" style="edgeStyle=none;rounded=1;jumpStyle=none;html=1;shadow=0;labelBackgroundColor=none;startArrow=none;startFill=0;jettySize=auto;orthogonalLoop=1;strokeColor=#12AAB5;strokeWidth=3;fontFamily=Helvetica;fontSize=14;fontColor=#FFFFFF;spacing=5;fontStyle=1;fillColor=#b0e3e6;exitX=0.867;exitY=0.984;exitDx=0;exitDy=0;exitPerimeter=0;" parent="1" source="4njEkcWV6SPJyhwRv9go-27" target="4njEkcWV6SPJyhwRv9go-140" edge="1">
          <mxGeometry relative="1" as="geometry">
            <mxPoint x="769.25" y="866.9999999999998" as="sourcePoint" />
            <mxPoint x="915.0825086139821" y="1352.5" as="targetPoint" />
          </mxGeometry>
        </mxCell>
        <mxCell id="4njEkcWV6SPJyhwRv9go-144" value="" style="edgeStyle=none;rounded=1;jumpStyle=none;html=1;shadow=0;labelBackgroundColor=none;startArrow=none;startFill=0;jettySize=auto;orthogonalLoop=1;strokeColor=#12AAB5;strokeWidth=3;fontFamily=Helvetica;fontSize=14;fontColor=#FFFFFF;spacing=5;fontStyle=1;fillColor=#b0e3e6;exitX=0.25;exitY=1;exitDx=0;exitDy=0;" parent="1" source="4njEkcWV6SPJyhwRv9go-27" target="4njEkcWV6SPJyhwRv9go-141" edge="1">
          <mxGeometry relative="1" as="geometry">
            <mxPoint x="749.5" y="866.9999999999998" as="sourcePoint" />
            <mxPoint x="922.3899999999999" y="1413.6234567901233" as="targetPoint" />
          </mxGeometry>
        </mxCell>
        <mxCell id="4njEkcWV6SPJyhwRv9go-145" value="вдень" style="fontFamily=Helvetica;fontSize=14;" parent="1" vertex="1">
          <mxGeometry x="1050" y="1036" width="82" height="60" as="geometry" />
        </mxCell>
        <mxCell id="4njEkcWV6SPJyhwRv9go-146" value="" style="edgeStyle=none;rounded=1;jumpStyle=none;html=1;shadow=0;labelBackgroundColor=none;startArrow=none;startFill=0;jettySize=auto;orthogonalLoop=1;strokeColor=#12AAB5;strokeWidth=3;fontFamily=Helvetica;fontSize=14;fontColor=#FFFFFF;spacing=5;fontStyle=1;fillColor=#b0e3e6;entryX=0.5;entryY=0;entryDx=0;entryDy=0;" parent="1" source="4njEkcWV6SPJyhwRv9go-139" target="4njEkcWV6SPJyhwRv9go-145" edge="1">
          <mxGeometry relative="1" as="geometry">
            <mxPoint x="852.8900000000001" y="1177.5" as="sourcePoint" />
            <mxPoint x="844.3900000000001" y="1125.5" as="targetPoint" />
          </mxGeometry>
        </mxCell>
        <mxCell id="4njEkcWV6SPJyhwRv9go-147" value="вдень" style="fontFamily=Helvetica;fontSize=14;" parent="1" vertex="1">
          <mxGeometry x="954" y="1036" width="82" height="60" as="geometry" />
        </mxCell>
        <mxCell id="4njEkcWV6SPJyhwRv9go-148" value="вдень" style="fontFamily=Helvetica;fontSize=14;" parent="1" vertex="1">
          <mxGeometry x="859.5" y="1036" width="82" height="60" as="geometry" />
        </mxCell>
        <mxCell id="4njEkcWV6SPJyhwRv9go-149" value="" style="edgeStyle=none;rounded=1;jumpStyle=none;html=1;shadow=0;labelBackgroundColor=none;startArrow=none;startFill=0;jettySize=auto;orthogonalLoop=1;strokeColor=#12AAB5;strokeWidth=3;fontFamily=Helvetica;fontSize=14;fontColor=#FFFFFF;spacing=5;fontStyle=1;fillColor=#b0e3e6;entryX=0.5;entryY=0;entryDx=0;entryDy=0;" parent="1" source="4njEkcWV6SPJyhwRv9go-141" target="4njEkcWV6SPJyhwRv9go-148" edge="1">
          <mxGeometry relative="1" as="geometry">
            <mxPoint x="915" y="1441.5" as="sourcePoint" />
            <mxPoint x="838" y="1465.6234567901233" as="targetPoint" />
          </mxGeometry>
        </mxCell>
        <mxCell id="4njEkcWV6SPJyhwRv9go-150" value="" style="edgeStyle=none;rounded=1;jumpStyle=none;html=1;shadow=0;labelBackgroundColor=none;startArrow=none;startFill=0;jettySize=auto;orthogonalLoop=1;strokeColor=#12AAB5;strokeWidth=3;fontFamily=Helvetica;fontSize=14;fontColor=#FFFFFF;spacing=5;fontStyle=1;fillColor=#b0e3e6;" parent="1" source="4njEkcWV6SPJyhwRv9go-140" target="4njEkcWV6SPJyhwRv9go-147" edge="1">
          <mxGeometry relative="1" as="geometry">
            <mxPoint x="1017.3900000000001" y="1416.5" as="sourcePoint" />
            <mxPoint x="1042.39" y="1416.5" as="targetPoint" />
          </mxGeometry>
        </mxCell>
        <mxCell id="4njEkcWV6SPJyhwRv9go-151" value="Приходить" style="rounded=1;whiteSpace=wrap;html=1;shadow=0;fillColor=#f2f9fa;fontFamily=Helvetica;fontSize=14;fontColor=#000000;align=center;spacing=5;fontStyle=0;arcSize=7;perimeterSpacing=2;" parent="1" vertex="1">
          <mxGeometry x="746" y="923" width="82" height="60" as="geometry" />
        </mxCell>
        <mxCell id="4njEkcWV6SPJyhwRv9go-152" value="Обробляється" style="rounded=1;whiteSpace=wrap;html=1;shadow=0;fillColor=#f2f9fa;fontFamily=Helvetica;fontSize=14;fontColor=#000000;align=center;spacing=5;fontStyle=0;arcSize=7;perimeterSpacing=2;" parent="1" vertex="1">
          <mxGeometry x="634" y="923" width="106" height="60" as="geometry" />
        </mxCell>
        <mxCell id="4njEkcWV6SPJyhwRv9go-153" value="Виходить" style="rounded=1;whiteSpace=wrap;html=1;shadow=0;fillColor=#f2f9fa;fontFamily=Helvetica;fontSize=14;fontColor=#000000;align=center;spacing=5;fontStyle=0;arcSize=7;perimeterSpacing=2;" parent="1" vertex="1">
          <mxGeometry x="594" y="832" width="84" height="60" as="geometry" />
        </mxCell>
        <mxCell id="4njEkcWV6SPJyhwRv9go-154" value="" style="edgeStyle=none;rounded=1;jumpStyle=none;html=1;shadow=0;labelBackgroundColor=none;startArrow=none;startFill=0;jettySize=auto;orthogonalLoop=1;strokeColor=#12AAB5;strokeWidth=3;fontFamily=Helvetica;fontSize=14;fontColor=#FFFFFF;spacing=5;fontStyle=1;fillColor=#b0e3e6;exitX=0.5;exitY=1;exitDx=0;exitDy=0;" parent="1" source="4njEkcWV6SPJyhwRv9go-25" target="4njEkcWV6SPJyhwRv9go-151" edge="1">
          <mxGeometry relative="1" as="geometry">
            <mxPoint x="593.75" y="832" as="sourcePoint" />
            <mxPoint x="672.3900000000001" y="1089.5" as="targetPoint" />
          </mxGeometry>
        </mxCell>
        <mxCell id="4njEkcWV6SPJyhwRv9go-155" value="" style="edgeStyle=none;rounded=1;jumpStyle=none;html=1;shadow=0;labelBackgroundColor=none;startArrow=none;startFill=0;jettySize=auto;orthogonalLoop=1;strokeColor=#12AAB5;strokeWidth=3;fontFamily=Helvetica;fontSize=14;fontColor=#FFFFFF;spacing=5;fontStyle=1;fillColor=#b0e3e6;exitX=0;exitY=1;exitDx=0;exitDy=0;" parent="1" source="4njEkcWV6SPJyhwRv9go-25" target="4njEkcWV6SPJyhwRv9go-152" edge="1">
          <mxGeometry relative="1" as="geometry">
            <mxPoint x="574" y="832" as="sourcePoint" />
            <mxPoint x="585.0825086139821" y="1358.5" as="targetPoint" />
          </mxGeometry>
        </mxCell>
        <mxCell id="4njEkcWV6SPJyhwRv9go-156" value="" style="edgeStyle=none;rounded=1;jumpStyle=none;html=1;shadow=0;labelBackgroundColor=none;startArrow=none;startFill=0;jettySize=auto;orthogonalLoop=1;strokeColor=#12AAB5;strokeWidth=3;fontFamily=Helvetica;fontSize=14;fontColor=#FFFFFF;spacing=5;fontStyle=1;fillColor=#b0e3e6;exitX=0;exitY=0.5;exitDx=0;exitDy=0;" parent="1" source="4njEkcWV6SPJyhwRv9go-25" target="4njEkcWV6SPJyhwRv9go-153" edge="1">
          <mxGeometry relative="1" as="geometry">
            <mxPoint x="534.5" y="832" as="sourcePoint" />
            <mxPoint x="592.3899999999999" y="1419.6234567901233" as="targetPoint" />
          </mxGeometry>
        </mxCell>
        <mxCell id="4njEkcWV6SPJyhwRv9go-157" value="в &#xa;середовище" style="fontFamily=Helvetica;fontSize=14;" parent="1" vertex="1">
          <mxGeometry x="746" y="1036" width="82" height="60" as="geometry" />
        </mxCell>
        <mxCell id="4njEkcWV6SPJyhwRv9go-158" value="" style="edgeStyle=none;rounded=1;jumpStyle=none;html=1;shadow=0;labelBackgroundColor=none;startArrow=none;startFill=0;jettySize=auto;orthogonalLoop=1;strokeColor=#12AAB5;strokeWidth=3;fontFamily=Helvetica;fontSize=14;fontColor=#FFFFFF;spacing=5;fontStyle=1;fillColor=#b0e3e6;entryX=0.5;entryY=0;entryDx=0;entryDy=0;" parent="1" source="4njEkcWV6SPJyhwRv9go-151" target="4njEkcWV6SPJyhwRv9go-157" edge="1">
          <mxGeometry relative="1" as="geometry">
            <mxPoint x="522.8900000000001" y="1183.5" as="sourcePoint" />
            <mxPoint x="514.3900000000001" y="1131.5" as="targetPoint" />
          </mxGeometry>
        </mxCell>
        <mxCell id="4njEkcWV6SPJyhwRv9go-159" value="у приміщені" style="fontFamily=Helvetica;fontSize=14;" parent="1" vertex="1">
          <mxGeometry x="647" y="1036" width="82" height="60" as="geometry" />
        </mxCell>
        <mxCell id="4njEkcWV6SPJyhwRv9go-160" value="в очі" style="fontFamily=Helvetica;fontSize=14;" parent="1" vertex="1">
          <mxGeometry x="552" y="1036" width="82" height="60" as="geometry" />
        </mxCell>
        <mxCell id="4njEkcWV6SPJyhwRv9go-161" value="" style="edgeStyle=none;rounded=1;jumpStyle=none;html=1;shadow=0;labelBackgroundColor=none;startArrow=none;startFill=0;jettySize=auto;orthogonalLoop=1;strokeColor=#12AAB5;strokeWidth=3;fontFamily=Helvetica;fontSize=14;fontColor=#FFFFFF;spacing=5;fontStyle=1;fillColor=#b0e3e6;entryX=0.5;entryY=0;entryDx=0;entryDy=0;" parent="1" source="4njEkcWV6SPJyhwRv9go-153" target="4njEkcWV6SPJyhwRv9go-160" edge="1">
          <mxGeometry relative="1" as="geometry">
            <mxPoint x="585" y="1447.5" as="sourcePoint" />
            <mxPoint x="508" y="1471.6234567901233" as="targetPoint" />
          </mxGeometry>
        </mxCell>
        <mxCell id="4njEkcWV6SPJyhwRv9go-162" value="" style="edgeStyle=none;rounded=1;jumpStyle=none;html=1;shadow=0;labelBackgroundColor=none;startArrow=none;startFill=0;jettySize=auto;orthogonalLoop=1;strokeColor=#12AAB5;strokeWidth=3;fontFamily=Helvetica;fontSize=14;fontColor=#FFFFFF;spacing=5;fontStyle=1;fillColor=#b0e3e6;" parent="1" source="4njEkcWV6SPJyhwRv9go-152" target="4njEkcWV6SPJyhwRv9go-159" edge="1">
          <mxGeometry relative="1" as="geometry">
            <mxPoint x="687.3900000000001" y="1422.5" as="sourcePoint" />
            <mxPoint x="712.3900000000001" y="1422.5" as="targetPoint" />
          </mxGeometry>
        </mxCell>
        <mxCell id="4njEkcWV6SPJyhwRv9go-163" value="Виходить" style="rounded=1;whiteSpace=wrap;html=1;shadow=0;fillColor=#fae8e6;fontFamily=Helvetica;fontSize=14;fontColor=#000000;align=center;spacing=5;fontStyle=0;arcSize=7;perimeterSpacing=2;direction=south;" parent="1" vertex="1">
          <mxGeometry x="135" y="820" width="82" height="60" as="geometry" />
        </mxCell>
        <mxCell id="4njEkcWV6SPJyhwRv9go-164" value="Приходить" style="rounded=1;whiteSpace=wrap;html=1;shadow=0;fillColor=#fae8e6;fontFamily=Helvetica;fontSize=14;fontColor=#000000;align=center;spacing=5;fontStyle=0;arcSize=7;perimeterSpacing=2;direction=south;" parent="1" vertex="1">
          <mxGeometry x="180" y="936" width="84" height="60" as="geometry" />
        </mxCell>
        <mxCell id="4njEkcWV6SPJyhwRv9go-165" value="дотрамання&#xa;правил" style="fontFamily=Helvetica;fontSize=14;" parent="1" vertex="1">
          <mxGeometry x="4" y="820" width="106" height="60" as="geometry" />
        </mxCell>
        <mxCell id="4njEkcWV6SPJyhwRv9go-166" value="" style="edgeStyle=none;rounded=1;jumpStyle=none;html=1;shadow=0;labelBackgroundColor=none;startArrow=none;startFill=0;jettySize=auto;orthogonalLoop=1;strokeColor=#12AAB5;strokeWidth=3;fontFamily=Helvetica;fontSize=14;fontColor=#FFFFFF;spacing=5;fontStyle=1;fillColor=#b0e3e6;entryX=1;entryY=0.5;entryDx=0;entryDy=0;" parent="1" source="4njEkcWV6SPJyhwRv9go-163" target="4njEkcWV6SPJyhwRv9go-165" edge="1">
          <mxGeometry relative="1" as="geometry">
            <mxPoint x="124.5" y="887.5" as="sourcePoint" />
            <mxPoint x="116" y="835.5" as="targetPoint" />
          </mxGeometry>
        </mxCell>
        <mxCell id="4njEkcWV6SPJyhwRv9go-167" value="робітниками" style="fontFamily=Helvetica;fontSize=14;" parent="1" vertex="1">
          <mxGeometry x="10" y="1036" width="120" height="60" as="geometry" />
        </mxCell>
        <mxCell id="4njEkcWV6SPJyhwRv9go-168" value="певні&#xa;правила" style="fontFamily=Helvetica;fontSize=14;" parent="1" vertex="1">
          <mxGeometry x="140" y="1036" width="107" height="60" as="geometry" />
        </mxCell>
        <mxCell id="4njEkcWV6SPJyhwRv9go-169" value="" style="edgeStyle=none;rounded=1;jumpStyle=none;html=1;shadow=0;labelBackgroundColor=none;startArrow=none;startFill=0;jettySize=auto;orthogonalLoop=1;strokeColor=#12AAB5;strokeWidth=3;fontFamily=Helvetica;fontSize=14;fontColor=#FFFFFF;spacing=5;fontStyle=1;fillColor=#b0e3e6;entryX=0.5;entryY=0;entryDx=0;entryDy=0;exitX=1;exitY=0.5;exitDx=0;exitDy=0;" parent="1" source="4njEkcWV6SPJyhwRv9go-164" target="4njEkcWV6SPJyhwRv9go-168" edge="1">
          <mxGeometry relative="1" as="geometry">
            <mxPoint x="210" y="990" as="sourcePoint" />
            <mxPoint x="181" y="1046" as="targetPoint" />
          </mxGeometry>
        </mxCell>
        <mxCell id="4njEkcWV6SPJyhwRv9go-170" value="" style="edgeStyle=none;rounded=1;jumpStyle=none;html=1;shadow=0;labelBackgroundColor=none;startArrow=none;startFill=0;jettySize=auto;orthogonalLoop=1;strokeColor=#12AAB5;strokeWidth=3;fontFamily=Helvetica;fontSize=14;fontColor=#FFFFFF;spacing=5;fontStyle=1;fillColor=#b0e3e6;entryX=0.5;entryY=0;entryDx=0;entryDy=0;exitX=1;exitY=0.5;exitDx=0;exitDy=0;" parent="1" source="4njEkcWV6SPJyhwRv9go-171" target="4njEkcWV6SPJyhwRv9go-167" edge="1">
          <mxGeometry relative="1" as="geometry">
            <mxPoint x="-76.99999999999955" y="910.0178571428571" as="sourcePoint" />
            <mxPoint x="76" y="1107.5" as="targetPoint" />
          </mxGeometry>
        </mxCell>
        <mxCell id="4njEkcWV6SPJyhwRv9go-171" value="Обробляється" style="rounded=1;whiteSpace=wrap;html=1;shadow=0;fillColor=#fae8e6;fontFamily=Helvetica;fontSize=14;fontColor=#000000;align=center;spacing=5;fontStyle=0;arcSize=7;perimeterSpacing=2;direction=south;" parent="1" vertex="1">
          <mxGeometry x="54" y="910" width="106" height="60" as="geometry" />
        </mxCell>
        <mxCell id="4njEkcWV6SPJyhwRv9go-172" value="" style="edgeStyle=none;rounded=1;jumpStyle=none;html=1;shadow=0;labelBackgroundColor=none;startArrow=none;startFill=0;jettySize=auto;orthogonalLoop=1;strokeColor=#12AAB5;strokeWidth=3;fontFamily=Helvetica;fontSize=14;fontColor=#FFFFFF;spacing=5;fontStyle=1;fillColor=#b0e3e6;exitX=0;exitY=0.5;exitDx=0;exitDy=0;" parent="1" source="4njEkcWV6SPJyhwRv9go-37" target="4njEkcWV6SPJyhwRv9go-163" edge="1">
          <mxGeometry relative="1" as="geometry">
            <mxPoint x="233" y="836.8628571428571" as="sourcePoint" />
            <mxPoint x="213" y="642.9999999999998" as="targetPoint" />
          </mxGeometry>
        </mxCell>
        <mxCell id="4njEkcWV6SPJyhwRv9go-173" value="" style="edgeStyle=none;rounded=1;jumpStyle=none;html=1;shadow=0;labelBackgroundColor=none;startArrow=none;startFill=0;jettySize=auto;orthogonalLoop=1;strokeColor=#12AAB5;strokeWidth=3;fontFamily=Helvetica;fontSize=14;fontColor=#FFFFFF;spacing=5;fontStyle=1;fillColor=#b0e3e6;" parent="1" source="4njEkcWV6SPJyhwRv9go-37" target="4njEkcWV6SPJyhwRv9go-171" edge="1">
          <mxGeometry relative="1" as="geometry">
            <mxPoint x="182" y="871" as="sourcePoint" />
            <mxPoint x="172" y="652.9999999999998" as="targetPoint" />
          </mxGeometry>
        </mxCell>
        <mxCell id="4njEkcWV6SPJyhwRv9go-174" value="" style="edgeStyle=none;rounded=1;jumpStyle=none;html=1;shadow=0;labelBackgroundColor=none;startArrow=none;startFill=0;jettySize=auto;orthogonalLoop=1;strokeColor=#12AAB5;strokeWidth=3;fontFamily=Helvetica;fontSize=14;fontColor=#FFFFFF;spacing=5;fontStyle=1;fillColor=#b0e3e6;exitX=0.5;exitY=1;exitDx=0;exitDy=0;entryX=0.016;entryY=0.091;entryDx=0;entryDy=0;entryPerimeter=0;" parent="1" source="4njEkcWV6SPJyhwRv9go-37" target="4njEkcWV6SPJyhwRv9go-164" edge="1">
          <mxGeometry relative="1" as="geometry">
            <mxPoint x="215.5" y="871" as="sourcePoint" />
            <mxPoint x="183" y="943" as="targetPoint" />
          </mxGeometry>
        </mxCell>
        <mxCell id="4njEkcWV6SPJyhwRv9go-175" value="" style="edgeStyle=none;rounded=1;jumpStyle=none;html=1;shadow=0;labelBackgroundColor=none;startArrow=none;startFill=0;jettySize=auto;orthogonalLoop=1;strokeColor=#12AAB5;strokeWidth=3;fontFamily=Helvetica;fontSize=14;fontColor=#FFFFFF;spacing=5;fontStyle=1;fillColor=#b0e3e6;exitX=0.5;exitY=0;exitDx=0;exitDy=0;entryX=1;entryY=0;entryDx=0;entryDy=0;" parent="1" source="4njEkcWV6SPJyhwRv9go-31" target="4njEkcWV6SPJyhwRv9go-100" edge="1">
          <mxGeometry relative="1" as="geometry">
            <mxPoint x="239.99999999999955" y="303" as="sourcePoint" />
            <mxPoint x="294" y="276" as="targetPoint" />
          </mxGeometry>
        </mxCell>
      </root>
    </mxGraphModel>
  </diagram>
</mxfile>
